<svg width="574" height="200" viewBox="0 0 574 200" fill="none" xmlns="http://www.w3.org/2000/svg">
<g clip-path="url(#clip0_341_633)">
<path d="M279.188 0H406.43C411.103 0 414.891 3.78778 414.891 8.46024V191.54C414.891 196.212 411.103 200 406.43 200H279.188C274.516 200 270.728 196.212 270.728 191.54V8.46024C270.728 3.78778 274.516 0 279.188 0Z" fill="#A1CEC9"/>
<path d="M285.955 17.5969C290.693 14.5512 292.046 7.78305 289.847 4.06055C292.723 7.44457 298.984 9.4751 304.06 7.78305C300.337 10.8287 297.799 16.7509 299.83 21.3194C297.461 17.0893 291.2 15.0589 285.955 17.5969Z" fill="#B5D6CF"/>
<path d="M285.955 46.7004C290.693 43.6548 292.046 36.8866 289.847 33.1641C292.723 36.5482 298.984 38.5786 304.06 36.8866C300.337 39.9323 297.799 45.8544 299.83 50.4229C297.461 46.1928 291.2 44.1624 285.955 46.7004Z" fill="#B5D6CF"/>
<path d="M285.955 75.804C290.693 72.7583 292.046 65.9901 289.847 62.2676C292.723 65.6517 298.984 67.6821 304.06 65.9901C300.337 69.0358 297.799 74.9579 299.83 79.5265C297.461 75.2963 291.2 73.2659 285.955 75.804Z" fill="#B5D6CF"/>
<path d="M285.955 104.906C290.693 101.861 292.046 95.0926 289.847 91.3701C292.723 94.7542 298.984 96.7847 304.06 95.0926C300.337 98.1383 297.799 104.06 299.83 108.629C297.461 104.399 291.2 102.368 285.955 104.906Z" fill="#B5D6CF"/>
<path d="M285.955 134.01C290.693 130.964 292.046 124.196 289.847 120.474C292.723 123.858 298.984 125.888 304.06 124.196C300.337 127.242 297.799 133.164 299.83 137.733C297.461 133.502 291.2 131.472 285.955 134.01Z" fill="#B5D6CF"/>
<path d="M285.955 163.114C290.693 160.068 292.046 153.3 289.847 149.577C292.723 152.961 298.984 154.992 304.06 153.3C300.337 156.345 297.799 162.268 299.83 166.836C297.461 162.606 291.2 160.575 285.955 163.114Z" fill="#B5D6CF"/>
<path d="M285.955 192.217C290.693 189.171 292.046 182.403 289.847 178.681C292.723 182.065 298.984 184.095 304.06 182.403C300.337 185.449 297.799 191.371 299.83 195.94C297.461 191.709 291.2 189.679 285.955 192.217Z" fill="#B5D6CF"/>
<path d="M320.135 17.5969C324.872 14.5512 326.226 7.78305 324.026 4.06055C326.903 7.44457 333.164 9.4751 338.24 7.78305C334.517 10.8287 331.979 16.7509 334.01 21.3194C331.641 17.0893 325.38 15.0589 320.135 17.5969Z" fill="#B5D6CF"/>
<path d="M320.135 46.7004C324.872 43.6548 326.226 36.8866 324.026 33.1641C326.903 36.5482 333.164 38.5786 338.24 36.8866C334.517 39.9323 331.979 45.8544 334.01 50.4229C331.641 46.1928 325.38 44.1624 320.135 46.7004Z" fill="#B5D6CF"/>
<path d="M320.135 75.804C324.872 72.7583 326.226 65.9901 324.026 62.2676C326.903 65.6517 333.164 67.6821 338.24 65.9901C334.517 69.0358 331.979 74.9579 334.01 79.5265C331.641 75.2963 325.38 73.2659 320.135 75.804Z" fill="#B5D6CF"/>
<path d="M320.135 104.906C324.872 101.861 326.226 95.0926 324.026 91.3701C326.903 94.7542 333.164 96.7847 338.24 95.0926C334.517 98.1383 331.979 104.06 334.01 108.629C331.641 104.399 325.38 102.368 320.135 104.906Z" fill="#B5D6CF"/>
<path d="M320.135 134.01C324.872 130.964 326.226 124.196 324.026 120.474C326.903 123.858 333.164 125.888 338.24 124.196C334.517 127.242 331.979 133.164 334.01 137.733C331.641 133.502 325.38 131.472 320.135 134.01Z" fill="#B5D6CF"/>
<path d="M320.135 163.114C324.872 160.068 326.226 153.3 324.026 149.577C326.903 152.961 333.164 154.992 338.24 153.3C334.517 156.345 331.979 162.268 334.01 166.836C331.641 162.606 325.38 160.575 320.135 163.114Z" fill="#B5D6CF"/>
<path d="M320.135 192.217C324.872 189.171 326.226 182.403 324.026 178.681C326.903 182.065 333.164 184.095 338.24 182.403C334.517 185.449 331.979 191.371 334.01 195.94C331.641 191.709 325.38 189.679 320.135 192.217Z" fill="#B5D6CF"/>
<path d="M354.314 17.5969C359.052 14.5512 360.406 7.78305 358.206 4.06055C361.083 7.44457 367.343 9.4751 372.419 7.78305C368.697 10.8287 366.159 16.7509 368.189 21.3194C365.82 17.0893 359.56 15.0589 354.314 17.5969Z" fill="#B5D6CF"/>
<path d="M354.314 46.7004C359.052 43.6548 360.406 36.8866 358.206 33.1641C361.083 36.5482 367.343 38.5786 372.419 36.8866C368.697 39.9323 366.159 45.8544 368.189 50.4229C365.82 46.1928 359.56 44.1624 354.314 46.7004Z" fill="#B5D6CF"/>
<path d="M354.314 75.804C359.052 72.7583 360.406 65.9901 358.206 62.2676C361.083 65.6517 367.343 67.6821 372.419 65.9901C368.697 69.0358 366.159 74.9579 368.189 79.5265C365.82 75.2963 359.56 73.2659 354.314 75.804Z" fill="#B5D6CF"/>
<path d="M354.314 104.906C359.052 101.861 360.406 95.0926 358.206 91.3701C361.083 94.7542 367.343 96.7847 372.419 95.0926C368.697 98.1383 366.159 104.06 368.189 108.629C365.82 104.399 359.56 102.368 354.314 104.906Z" fill="#B5D6CF"/>
<path d="M354.314 134.01C359.052 130.964 360.406 124.196 358.206 120.474C361.083 123.858 367.343 125.888 372.419 124.196C368.697 127.242 366.159 133.164 368.189 137.733C365.82 133.502 359.56 131.472 354.314 134.01Z" fill="#B5D6CF"/>
<path d="M354.314 163.114C359.052 160.068 360.406 153.3 358.206 149.577C361.083 152.961 367.343 154.992 372.419 153.3C368.697 156.345 366.159 162.268 368.189 166.836C365.82 162.606 359.56 160.575 354.314 163.114Z" fill="#B5D6CF"/>
<path d="M354.314 192.217C359.052 189.171 360.406 182.403 358.206 178.681C361.083 182.065 367.343 184.095 372.419 182.403C368.697 185.449 366.159 191.371 368.189 195.94C365.82 191.709 359.56 189.679 354.314 192.217Z" fill="#B5D6CF"/>
<path d="M388.494 17.5969C393.232 14.5512 394.586 7.78305 392.386 4.06055C395.262 7.44457 401.523 9.4751 406.599 7.78305C402.877 10.8287 400.338 16.7509 402.369 21.3194C400 17.0893 393.739 15.0589 388.494 17.5969Z" fill="#B5D6CF"/>
<path d="M388.494 46.7004C393.232 43.6548 394.586 36.8866 392.386 33.1641C395.262 36.5482 401.523 38.5786 406.599 36.8866C402.877 39.9323 400.338 45.8544 402.369 50.4229C400 46.1928 393.739 44.1624 388.494 46.7004Z" fill="#B5D6CF"/>
<path d="M388.494 75.804C393.232 72.7583 394.586 65.9901 392.386 62.2676C395.262 65.6517 401.523 67.6821 406.599 65.9901C402.877 69.0358 400.338 74.9579 402.369 79.5265C400 75.2963 393.739 73.2659 388.494 75.804Z" fill="#B5D6CF"/>
<path d="M388.494 104.906C393.232 101.861 394.586 95.0926 392.386 91.3701C395.262 94.7542 401.523 96.7847 406.599 95.0926C402.877 98.1383 400.338 104.06 402.369 108.629C400 104.399 393.739 102.368 388.494 104.906Z" fill="#B5D6CF"/>
<path d="M388.494 134.01C393.232 130.964 394.586 124.196 392.386 120.474C395.262 123.858 401.523 125.888 406.599 124.196C402.877 127.242 400.338 133.164 402.369 137.733C400 133.502 393.739 131.472 388.494 134.01Z" fill="#B5D6CF"/>
<path d="M388.494 163.114C393.232 160.068 394.586 153.3 392.386 149.577C395.262 152.961 401.523 154.992 406.599 153.3C402.877 156.345 400.338 162.268 402.369 166.836C400 162.606 393.739 160.575 388.494 163.114Z" fill="#B5D6CF"/>
<path d="M388.494 192.217C393.232 189.171 394.586 182.403 392.386 178.681C395.262 182.065 401.523 184.095 406.599 182.403C402.877 185.449 400.338 191.371 402.369 195.94C400 191.709 393.739 189.679 388.494 192.217Z" fill="#B5D6CF"/>
<path d="M302.848 126.102V107.926L324.791 50.4229H347.926V113.742H355.922V126.102H347.926V151.946H335.367V126.102H302.848ZM315.34 113.742H335.367V62.188H333.45L315.34 110.107V113.742Z" fill="#75A7A4"/>
<path d="M401.953 70.7588C401.953 70.7588 391.872 62.3581 391.537 63.3662C391.036 65.933 393.55 68.0708 393.55 69.7506C393.55 71.7669 390.863 71.0948 390.863 73.4471C390.863 75.7994 393.55 75.0224 393.55 76.8075C393.55 78.1513 390.863 79.1594 391.537 82.5198C391.872 83.1919 401.953 76.4711 401.953 76.4711V70.7588Z" fill="#75A7A4"/>
<path d="M414.721 63.2822H402.633C401.885 63.2822 401.279 63.8883 401.279 64.6359V81.4183C401.279 82.1658 401.885 82.7719 402.633 82.7719H414.721V63.2822Z" fill="#75A7A4"/>
<path d="M401.953 97.6416C401.953 97.6416 391.872 89.2409 391.537 90.249C391.036 92.8155 393.55 94.9533 393.55 96.6335C393.55 98.6497 390.863 97.9776 390.863 100.33C390.863 102.682 393.55 101.905 393.55 103.69C393.55 105.034 390.863 106.042 391.537 109.402C391.872 110.074 401.953 103.354 401.953 103.354V97.6416Z" fill="#75A7A4"/>
<path d="M414.721 90.165H402.633C401.885 90.165 401.279 90.7708 401.279 91.5187V108.301C401.279 109.048 401.885 109.654 402.633 109.654H414.721V90.165Z" fill="#75A7A4"/>
<path d="M401.953 124.523C401.953 124.523 391.872 116.123 391.537 117.131C391.036 119.698 393.55 121.835 393.55 123.515C393.55 125.532 390.863 124.859 390.863 127.212C390.863 129.564 393.55 128.787 393.55 130.572C393.55 131.916 390.863 132.924 391.537 136.284C391.872 136.957 401.953 130.236 401.953 130.236V124.523Z" fill="#75A7A4"/>
<path d="M414.721 117.047H402.633C401.885 117.047 401.279 117.653 401.279 118.401V135.183C401.279 135.93 401.885 136.537 402.633 136.537H414.721V117.047Z" fill="#75A7A4"/>
<path d="M437.563 0H564.805C569.478 0 573.266 3.78778 573.266 8.46024V191.54C573.266 196.212 569.478 200 564.805 200H437.563C432.891 200 429.103 196.212 429.103 191.54V8.46024C429.103 3.78778 432.891 0 437.563 0Z" fill="#A1CEC9"/>
<path d="M444.332 17.5969C449.07 14.5512 450.423 7.78305 448.224 4.06055C451.1 7.44457 457.361 9.4751 462.437 7.78305C458.714 10.8287 456.176 16.7509 458.207 21.3194C455.838 17.0893 449.577 15.0589 444.332 17.5969Z" fill="#B5D6CF"/>
<path d="M444.332 46.7004C449.07 43.6548 450.423 36.8866 448.224 33.1641C451.1 36.5482 457.361 38.5786 462.437 36.8866C458.714 39.9323 456.176 45.8544 458.207 50.4229C455.838 46.1928 449.577 44.1624 444.332 46.7004Z" fill="#B5D6CF"/>
<path d="M444.332 75.804C449.07 72.7583 450.423 65.9901 448.224 62.2676C451.1 65.6517 457.361 67.6821 462.437 65.9901C458.714 69.0358 456.176 74.9579 458.207 79.5265C455.838 75.2963 449.577 73.2659 444.332 75.804Z" fill="#B5D6CF"/>
<path d="M444.332 104.906C449.07 101.861 450.423 95.0926 448.224 91.3701C451.1 94.7542 457.361 96.7847 462.437 95.0926C458.714 98.1383 456.176 104.06 458.207 108.629C455.838 104.399 449.577 102.368 444.332 104.906Z" fill="#B5D6CF"/>
<path d="M444.332 134.01C449.07 130.964 450.423 124.196 448.224 120.474C451.1 123.858 457.361 125.888 462.437 124.196C458.714 127.242 456.176 133.164 458.207 137.733C455.838 133.502 449.577 131.472 444.332 134.01Z" fill="#B5D6CF"/>
<path d="M444.332 163.114C449.07 160.068 450.423 153.3 448.224 149.577C451.1 152.961 457.361 154.992 462.437 153.3C458.714 156.345 456.176 162.268 458.207 166.836C455.838 162.606 449.577 160.575 444.332 163.114Z" fill="#B5D6CF"/>
<path d="M444.332 192.217C449.07 189.171 450.423 182.403 448.224 178.681C451.1 182.065 457.361 184.095 462.437 182.403C458.714 185.449 456.176 191.371 458.207 195.94C455.838 191.709 449.577 189.679 444.332 192.217Z" fill="#B5D6CF"/>
<path d="M478.512 17.5969C483.249 14.5512 484.603 7.78305 482.403 4.06055C485.28 7.44457 491.54 9.4751 496.617 7.78305C492.894 10.8287 490.356 16.7509 492.387 21.3194C490.018 17.0893 483.757 15.0589 478.512 17.5969Z" fill="#B5D6CF"/>
<path d="M478.512 46.7004C483.249 43.6548 484.603 36.8866 482.403 33.1641C485.28 36.5482 491.54 38.5786 496.617 36.8866C492.894 39.9323 490.356 45.8544 492.387 50.4229C490.018 46.1928 483.757 44.1624 478.512 46.7004Z" fill="#B5D6CF"/>
<path d="M478.512 75.804C483.249 72.7583 484.603 65.9901 482.403 62.2676C485.28 65.6517 491.54 67.6821 496.617 65.9901C492.894 69.0358 490.356 74.9579 492.387 79.5265C490.018 75.2963 483.757 73.2659 478.512 75.804Z" fill="#B5D6CF"/>
<path d="M478.512 104.906C483.249 101.861 484.603 95.0926 482.403 91.3701C485.28 94.7542 491.54 96.7847 496.617 95.0926C492.894 98.1383 490.356 104.06 492.387 108.629C490.018 104.399 483.757 102.368 478.512 104.906Z" fill="#B5D6CF"/>
<path d="M478.512 134.01C483.249 130.964 484.603 124.196 482.403 120.474C485.28 123.858 491.54 125.888 496.617 124.196C492.894 127.242 490.356 133.164 492.387 137.733C490.018 133.502 483.757 131.472 478.512 134.01Z" fill="#B5D6CF"/>
<path d="M478.512 163.114C483.249 160.068 484.603 153.3 482.403 149.577C485.28 152.961 491.54 154.992 496.617 153.3C492.894 156.345 490.356 162.268 492.387 166.836C490.018 162.606 483.757 160.575 478.512 163.114Z" fill="#B5D6CF"/>
<path d="M478.512 192.217C483.249 189.171 484.603 182.403 482.403 178.681C485.28 182.065 491.54 184.095 496.617 182.403C492.894 185.449 490.356 191.371 492.387 195.94C490.018 191.709 483.757 189.679 478.512 192.217Z" fill="#B5D6CF"/>
<path d="M512.689 17.5969C517.427 14.5512 518.781 7.78305 516.581 4.06055C519.458 7.44457 525.718 9.4751 530.794 7.78305C527.072 10.8287 524.534 16.7509 526.564 21.3194C524.195 17.0893 517.935 15.0589 512.689 17.5969Z" fill="#B5D6CF"/>
<path d="M512.689 46.7004C517.427 43.6548 518.781 36.8866 516.581 33.1641C519.458 36.5482 525.718 38.5786 530.794 36.8866C527.072 39.9323 524.534 45.8544 526.564 50.4229C524.195 46.1928 517.935 44.1624 512.689 46.7004Z" fill="#B5D6CF"/>
<path d="M512.689 75.804C517.427 72.7583 518.781 65.9901 516.581 62.2676C519.458 65.6517 525.718 67.6821 530.794 65.9901C527.072 69.0358 524.534 74.9579 526.564 79.5265C524.195 75.2963 517.935 73.2659 512.689 75.804Z" fill="#B5D6CF"/>
<path d="M512.689 104.906C517.427 101.861 518.781 95.0926 516.581 91.3701C519.458 94.7542 525.718 96.7847 530.794 95.0926C527.072 98.1383 524.534 104.06 526.564 108.629C524.195 104.399 517.935 102.368 512.689 104.906Z" fill="#B5D6CF"/>
<path d="M512.689 134.01C517.427 130.964 518.781 124.196 516.581 120.474C519.458 123.858 525.718 125.888 530.794 124.196C527.072 127.242 524.534 133.164 526.564 137.733C524.195 133.502 517.935 131.472 512.689 134.01Z" fill="#B5D6CF"/>
<path d="M512.689 163.114C517.427 160.068 518.781 153.3 516.581 149.577C519.458 152.961 525.718 154.992 530.794 153.3C527.072 156.345 524.534 162.268 526.564 166.836C524.195 162.606 517.935 160.575 512.689 163.114Z" fill="#B5D6CF"/>
<path d="M512.689 192.217C517.427 189.171 518.781 182.403 516.581 178.681C519.458 182.065 525.718 184.095 530.794 182.403C527.072 185.449 524.534 191.371 526.564 195.94C524.195 191.709 517.935 189.679 512.689 192.217Z" fill="#B5D6CF"/>
<path d="M546.869 17.5969C551.607 14.5512 552.961 7.78305 550.761 4.06055C553.637 7.44457 559.898 9.4751 564.974 7.78305C561.252 10.8287 558.713 16.7509 560.744 21.3194C558.375 17.0893 552.114 15.0589 546.869 17.5969Z" fill="#B5D6CF"/>
<path d="M546.869 46.7004C551.607 43.6548 552.961 36.8866 550.761 33.1641C553.637 36.5482 559.898 38.5786 564.974 36.8866C561.252 39.9323 558.713 45.8544 560.744 50.4229C558.375 46.1928 552.114 44.1624 546.869 46.7004Z" fill="#B5D6CF"/>
<path d="M546.869 75.804C551.607 72.7583 552.961 65.9901 550.761 62.2676C553.637 65.6517 559.898 67.6821 564.974 65.9901C561.252 69.0358 558.713 74.9579 560.744 79.5265C558.375 75.2963 552.114 73.2659 546.869 75.804Z" fill="#B5D6CF"/>
<path d="M546.869 104.906C551.607 101.861 552.961 95.0926 550.761 91.3701C553.637 94.7542 559.898 96.7847 564.974 95.0926C561.252 98.1383 558.713 104.06 560.744 108.629C558.375 104.399 552.114 102.368 546.869 104.906Z" fill="#B5D6CF"/>
<path d="M546.869 134.01C551.607 130.964 552.961 124.196 550.761 120.474C553.637 123.858 559.898 125.888 564.974 124.196C561.252 127.242 558.713 133.164 560.744 137.733C558.375 133.502 552.114 131.472 546.869 134.01Z" fill="#B5D6CF"/>
<path d="M546.869 163.114C551.607 160.068 552.961 153.3 550.761 149.577C553.637 152.961 559.898 154.992 564.974 153.3C561.252 156.345 558.713 162.268 560.744 166.836C558.375 162.606 552.114 160.575 546.869 163.114Z" fill="#B5D6CF"/>
<path d="M546.869 192.217C551.607 189.171 552.961 182.403 550.761 178.681C553.637 182.065 559.898 184.095 564.974 182.403C561.252 185.449 558.713 191.371 560.744 195.94C558.375 191.709 552.114 189.679 546.869 192.217Z" fill="#B5D6CF"/>
<path d="M493.1 134.317V115.942H505.458V129.492L512.995 137.622H521.519L529.255 129.492V111.183L521.519 102.525H511.276L507.309 94.9899L528.064 69.6755V59.8931H506.518V70.6007H494.223V48.3926H540.358V73.9716L527.073 90.2312L541.546 106.623V134.317L526.941 149.915H507.705L493.1 134.317Z" fill="#75A7A4"/>
<path d="M441.871 70.7588C441.871 70.7588 451.952 62.3581 452.287 63.3662C452.788 65.933 450.274 68.0708 450.274 69.7506C450.274 71.7669 452.961 71.0948 452.961 73.4471C452.961 75.7994 450.274 75.0224 450.274 76.8075C450.274 78.1513 452.961 79.1594 452.287 82.5198C451.952 83.1919 441.871 76.4711 441.871 76.4711V70.7588Z" fill="#75A7A4"/>
<path d="M429.104 63.2822H441.191C441.939 63.2822 442.545 63.8883 442.545 64.6359V81.4183C442.545 82.1658 441.939 82.7719 441.191 82.7719H429.104V63.2822Z" fill="#75A7A4"/>
<path d="M441.871 97.6416C441.871 97.6416 451.952 89.2409 452.287 90.249C452.788 92.8155 450.274 94.9533 450.274 96.6335C450.274 98.6497 452.961 97.9776 452.961 100.33C452.961 102.682 450.274 101.905 450.274 103.69C450.274 105.034 452.961 106.042 452.287 109.402C451.952 110.074 441.871 103.354 441.871 103.354V97.6416Z" fill="#75A7A4"/>
<path d="M429.104 90.165H441.191C441.939 90.165 442.545 90.7708 442.545 91.5187V108.301C442.545 109.048 441.939 109.654 441.191 109.654H429.104V90.165Z" fill="#75A7A4"/>
<path d="M441.871 124.523C441.871 124.523 451.952 116.123 452.287 117.131C452.788 119.698 450.274 121.835 450.274 123.515C450.274 125.532 452.961 124.859 452.961 127.212C452.961 129.564 450.274 128.787 450.274 130.572C450.274 131.916 452.961 132.924 452.287 136.284C451.952 136.957 441.871 130.236 441.871 130.236V124.523Z" fill="#75A7A4"/>
<path d="M429.104 117.047H441.191C441.939 117.047 442.545 117.653 442.545 118.401V135.183C442.545 135.93 441.939 136.537 441.191 136.537H429.104V117.047Z" fill="#75A7A4"/>
<path d="M16.9255 108.968L6.757 97.013L14.7814 86.2272H17.9326V86.877L9.55091 97.7927V95.6161L20.3692 108.319V108.968H16.9255ZM4.58035 98.3775V95.6485H9.09609V98.3775H4.58035ZM6.13974 86.2272V108.968H3.08594V86.2272H6.13974ZM32.4146 106.467C33.6275 106.467 34.7536 106.25 35.7932 105.817C36.8328 105.384 37.7316 104.777 38.4897 103.998C39.2694 103.196 39.8758 102.254 40.3089 101.171C40.7421 100.088 40.9587 98.8973 40.9587 97.5978C40.9587 96.2766 40.7421 95.0746 40.3089 93.9917C39.8758 92.9088 39.2802 91.9775 38.5221 91.1978C37.7641 90.4181 36.8653 89.8117 35.8257 89.3785C34.7861 88.9237 33.6491 88.6963 32.4146 88.6963C31.1801 88.6963 30.0431 88.9128 29.0035 89.346C27.9639 89.7792 27.0651 90.3964 26.307 91.1978C25.549 91.9775 24.9534 92.9088 24.5202 93.9917C24.0871 95.0746 23.8705 96.2766 23.8705 97.5978C23.8705 98.8973 24.0762 100.088 24.4877 101.171C24.9209 102.254 25.5165 103.196 26.2745 103.998C27.0542 104.777 27.9639 105.384 29.0035 105.817C30.0431 106.25 31.1801 106.467 32.4146 106.467ZM32.4146 109.261C30.6603 109.261 29.0576 108.968 27.6065 108.384C26.1771 107.799 24.9534 106.987 23.9354 105.947C22.9175 104.886 22.127 103.64 21.5639 102.211C21.0008 100.782 20.7192 99.233 20.7192 97.5653C20.7192 95.9193 21.0008 94.3924 21.5639 92.9846C22.127 91.5551 22.9175 90.3206 23.9354 89.281C24.9534 88.2198 26.1771 87.3968 27.6065 86.812C29.036 86.2056 30.6387 85.9023 32.4146 85.9023C34.1688 85.9023 35.7607 86.1947 37.1902 86.7795C38.6196 87.3643 39.8433 88.1873 40.8612 89.2485C41.9008 90.2881 42.6913 91.5226 43.2328 92.9521C43.7959 94.3815 44.0775 95.9409 44.0775 97.6303C44.0775 99.2763 43.7959 100.814 43.2328 102.243C42.6913 103.651 41.9117 104.875 40.8937 105.915C39.8758 106.954 38.6413 107.777 37.1902 108.384C35.7607 108.968 34.1688 109.261 32.4146 109.261ZM47.0927 108.968L50.1465 86.2272H52.3232L60.1526 105.2L58.5932 105.265L66.1303 86.2272H68.3394L71.6856 108.968H68.7292L66.1628 91.2952H66.91L59.7628 109.098H58.8206L51.4785 91.3277H52.3232L50.049 108.968H47.0927ZM76.6267 108.968V86.2272H88.4521V88.9886H79.6805V95.2587H82.2145C83.5573 95.2587 84.7485 95.4211 85.7881 95.746C86.8277 96.0492 87.6941 96.4932 88.3871 97.078C89.1018 97.6628 89.6325 98.3775 89.979 99.2221C90.3472 100.045 90.5313 100.987 90.5313 102.049C90.5313 103.11 90.3472 104.063 89.979 104.907C89.6325 105.752 89.1018 106.478 88.3871 107.084C87.6941 107.691 86.8277 108.156 85.7881 108.481C84.7485 108.806 83.5573 108.968 82.2145 108.968H76.6267ZM81.9871 106.207C82.8968 106.207 83.6873 106.12 84.3587 105.947C85.0518 105.752 85.6149 105.481 86.048 105.135C86.5029 104.788 86.8386 104.366 87.0551 103.868C87.2934 103.348 87.4125 102.752 87.4125 102.081C87.4125 101.518 87.315 100.987 87.1201 100.489C86.9252 99.991 86.6003 99.5687 86.1455 99.2221C85.7123 98.854 85.1492 98.5616 84.4562 98.345C83.7631 98.1284 82.9076 98.0201 81.8893 98.0201H79.6805V106.207H81.9871ZM95.1861 108.968V86.1947H98.2399V104.29L97.6551 103.965L111.43 86.2272H113.314V108.968H110.26V90.0282L111.397 90.5805L97.1353 108.968H95.1861ZM135.537 95.5836V98.345H121.015V95.5836H135.537ZM122.542 86.2272V108.968H119.488V86.2272H122.542ZM134.01 108.968V86.2272H137.064V108.968H134.01ZM140.586 108.968L149.91 85.9673H151.632L161.053 108.968H157.707L150.072 89.6384H151.339L143.77 108.968H140.586ZM145.297 103.121V100.457H156.115V103.121H145.297ZM181.303 113.322V108.968H164.539V86.2272H167.593V106.207H178.021V86.2272H181.075V106.207H184.194V113.322H181.303ZM188.46 108.968V86.1947H191.514V104.29L190.929 103.965L204.704 86.2272H206.588V108.968H203.534V90.0282L204.671 90.5805L190.409 108.968H188.46ZM222.476 108.968V99.9044H219.195C218.09 99.9044 217.083 99.7311 216.174 99.3846C215.286 99.038 214.517 98.5616 213.867 97.9551C213.239 97.327 212.752 96.6015 212.405 95.7785C212.059 94.9338 211.885 94.0242 211.885 93.0495C211.885 92.0533 212.059 91.1436 212.405 90.3206C212.752 89.4759 213.25 88.7612 213.899 88.1765C214.549 87.57 215.329 87.0935 216.239 86.747C217.148 86.4005 218.166 86.2272 219.292 86.2272H225.53V108.968H222.476ZM210.358 108.968V108.319L216.304 98.5724L219.422 99.1247L213.51 108.968H210.358ZM219.65 97.1105H222.476V88.9886H219.617C218.881 88.9886 218.22 89.0969 217.636 89.3135C217.072 89.5084 216.596 89.8008 216.206 90.1907C215.816 90.5589 215.513 90.992 215.296 91.4902C215.102 91.9883 215.004 92.5189 215.004 93.082C215.004 93.6452 215.102 94.1758 215.296 94.6739C215.513 95.1504 215.816 95.5727 216.206 95.9409C216.596 96.3091 217.072 96.6015 217.636 96.8181C218.22 97.013 218.892 97.1105 219.65 97.1105Z" fill="#50703E"/>
</g>
<defs>
<clipPath id="clip0_341_633">
<rect width="573.266" height="200" fill="white"/>
</clipPath>
</defs>
</svg>
