<svg width="600" height="371" viewBox="0 0 600 371" fill="none" xmlns="http://www.w3.org/2000/svg">
<g clip-path="url(#clip0_341_805)">
<path d="M352.469 6.17285H584.568C593.091 6.17285 600 13.0823 600 21.6055V355.567C600 364.09 593.091 371 584.568 371H352.469C343.946 371 337.037 364.09 337.037 355.567V21.6055C337.037 13.0823 343.946 6.17285 352.469 6.17285Z" fill="#A1CEC9"/>
<path d="M364.814 38.2732C373.456 32.7175 375.926 20.3714 371.913 13.5811C377.16 19.754 388.58 23.4579 397.839 20.3714C391.049 25.9271 386.419 36.73 390.123 45.0636C385.802 37.3473 374.382 33.6435 364.814 38.2732Z" fill="#B5D6CF"/>
<path d="M364.814 91.3611C373.456 85.8054 375.926 73.4593 371.913 66.6689C377.16 72.842 388.58 76.5458 397.839 73.4593C391.049 79.015 386.419 89.8179 390.123 98.1515C385.802 90.4352 374.382 86.7313 364.814 91.3611Z" fill="#B5D6CF"/>
<path d="M364.814 144.449C373.456 138.893 375.926 126.547 371.913 119.757C377.16 125.93 388.58 129.634 397.839 126.547C391.049 132.103 386.419 142.906 390.123 151.239C385.802 143.523 374.382 139.819 364.814 144.449Z" fill="#B5D6CF"/>
<path d="M364.814 197.538C373.456 191.982 375.926 179.636 371.913 172.846C377.16 179.019 388.58 182.723 397.839 179.636C391.049 185.192 386.419 195.995 390.123 204.328C385.802 196.612 374.382 192.908 364.814 197.538Z" fill="#B5D6CF"/>
<path d="M364.814 250.626C373.456 245.07 375.926 232.724 371.913 225.934C377.16 232.107 388.58 235.81 397.839 232.724C391.049 238.28 386.419 249.083 390.123 257.416C385.802 249.7 374.382 245.996 364.814 250.626Z" fill="#B5D6CF"/>
<path d="M364.814 303.714C373.456 298.158 375.926 285.812 371.913 279.021C377.16 285.195 388.58 288.898 397.839 285.812C391.049 291.368 386.419 302.17 390.123 310.504C385.802 302.788 374.382 299.084 364.814 303.714Z" fill="#B5D6CF"/>
<path d="M364.814 356.802C373.456 351.246 375.926 338.9 371.913 332.109C377.16 338.282 388.58 341.986 397.839 338.9C391.049 344.455 386.419 355.258 390.123 363.592C385.802 355.876 374.382 352.172 364.814 356.802Z" fill="#B5D6CF"/>
<path d="M427.16 38.2732C435.802 32.7175 438.271 20.3714 434.259 13.5811C439.506 19.754 450.926 23.4579 460.185 20.3714C453.395 25.9271 448.765 36.73 452.469 45.0636C448.148 37.3473 436.728 33.6435 427.16 38.2732Z" fill="#B5D6CF"/>
<path d="M427.16 91.3611C435.802 85.8054 438.271 73.4593 434.259 66.6689C439.506 72.842 450.926 76.5458 460.185 73.4593C453.395 79.015 448.765 89.8179 452.469 98.1515C448.148 90.4352 436.728 86.7313 427.16 91.3611Z" fill="#B5D6CF"/>
<path d="M427.16 144.449C435.802 138.893 438.271 126.547 434.259 119.757C439.506 125.93 450.926 129.634 460.185 126.547C453.395 132.103 448.765 142.906 452.469 151.239C448.148 143.523 436.728 139.819 427.16 144.449Z" fill="#B5D6CF"/>
<path d="M427.16 197.538C435.802 191.982 438.271 179.636 434.259 172.846C439.506 179.019 450.926 182.723 460.185 179.636C453.395 185.192 448.765 195.995 452.469 204.328C448.148 196.612 436.728 192.908 427.16 197.538Z" fill="#B5D6CF"/>
<path d="M427.16 250.626C435.802 245.07 438.271 232.724 434.259 225.934C439.506 232.107 450.926 235.81 460.185 232.724C453.395 238.28 448.765 249.083 452.469 257.416C448.148 249.7 436.728 245.996 427.16 250.626Z" fill="#B5D6CF"/>
<path d="M427.16 303.714C435.802 298.158 438.271 285.812 434.259 279.021C439.506 285.195 450.926 288.898 460.185 285.812C453.395 291.368 448.765 302.17 452.469 310.504C448.148 302.788 436.728 299.084 427.16 303.714Z" fill="#B5D6CF"/>
<path d="M427.16 356.802C435.802 351.246 438.271 338.9 434.259 332.109C439.506 338.282 450.926 341.986 460.185 338.9C453.395 344.455 448.765 355.258 452.469 363.592C448.148 355.876 436.728 352.172 427.16 356.802Z" fill="#B5D6CF"/>
<path d="M489.506 38.2732C498.148 32.7175 500.617 20.3714 496.605 13.5811C501.852 19.754 513.271 23.4579 522.531 20.3714C515.74 25.9271 511.111 36.73 514.815 45.0636C510.494 37.3473 499.074 33.6435 489.506 38.2732Z" fill="#B5D6CF"/>
<path d="M489.506 91.3611C498.148 85.8054 500.617 73.4593 496.605 66.6689C501.852 72.842 513.271 76.5458 522.531 73.4593C515.74 79.015 511.111 89.8179 514.815 98.1515C510.494 90.4352 499.074 86.7313 489.506 91.3611Z" fill="#B5D6CF"/>
<path d="M489.506 144.449C498.148 138.893 500.617 126.547 496.605 119.757C501.852 125.93 513.271 129.634 522.531 126.547C515.74 132.103 511.111 142.906 514.815 151.239C510.494 143.523 499.074 139.819 489.506 144.449Z" fill="#B5D6CF"/>
<path d="M489.506 197.538C498.148 191.982 500.617 179.636 496.605 172.846C501.852 179.019 513.271 182.723 522.531 179.636C515.74 185.192 511.111 195.995 514.815 204.328C510.494 196.612 499.074 192.908 489.506 197.538Z" fill="#B5D6CF"/>
<path d="M489.506 250.626C498.148 245.07 500.617 232.724 496.605 225.934C501.852 232.107 513.271 235.81 522.531 232.724C515.74 238.28 511.111 249.083 514.815 257.416C510.494 249.7 499.074 245.996 489.506 250.626Z" fill="#B5D6CF"/>
<path d="M489.506 303.714C498.148 298.158 500.617 285.812 496.605 279.021C501.852 285.195 513.271 288.898 522.531 285.812C515.74 291.368 511.111 302.17 514.815 310.504C510.494 302.788 499.074 299.084 489.506 303.714Z" fill="#B5D6CF"/>
<path d="M489.506 356.802C498.148 351.246 500.617 338.9 496.605 332.109C501.852 338.282 513.271 341.986 522.531 338.9C515.74 344.455 511.111 355.258 514.815 363.592C510.494 355.876 499.074 352.172 489.506 356.802Z" fill="#B5D6CF"/>
<path d="M551.852 38.2732C560.494 32.7175 562.963 20.3714 558.95 13.5811C564.197 19.754 575.617 23.4579 584.876 20.3714C578.086 25.9271 573.457 36.73 577.16 45.0636C572.839 37.3473 561.419 33.6435 551.852 38.2732Z" fill="#B5D6CF"/>
<path d="M551.852 91.3611C560.494 85.8054 562.963 73.4593 558.95 66.6689C564.197 72.842 575.617 76.5458 584.876 73.4593C578.086 79.015 573.457 89.8179 577.16 98.1515C572.839 90.4352 561.419 86.7313 551.852 91.3611Z" fill="#B5D6CF"/>
<path d="M551.852 144.449C560.494 138.893 562.963 126.547 558.95 119.757C564.197 125.93 575.617 129.634 584.876 126.547C578.086 132.103 573.457 142.906 577.16 151.239C572.839 143.523 561.419 139.819 551.852 144.449Z" fill="#B5D6CF"/>
<path d="M551.852 197.538C560.494 191.982 562.963 179.636 558.95 172.846C564.197 179.019 575.617 182.723 584.876 179.636C578.086 185.192 573.457 195.995 577.16 204.328C572.839 196.612 561.419 192.908 551.852 197.538Z" fill="#B5D6CF"/>
<path d="M551.852 250.626C560.494 245.07 562.963 232.724 558.95 225.934C564.197 232.107 575.617 235.81 584.876 232.724C578.086 238.28 573.457 249.083 577.16 257.416C572.839 249.7 561.419 245.996 551.852 250.626Z" fill="#B5D6CF"/>
<path d="M551.852 303.714C560.494 298.158 562.963 285.812 558.95 279.021C564.197 285.195 575.617 288.898 584.876 285.812C578.086 291.368 573.457 302.17 577.16 310.504C572.839 302.788 561.419 299.084 551.852 303.714Z" fill="#B5D6CF"/>
<path d="M551.852 356.802C560.494 351.246 562.963 338.9 558.95 332.109C564.197 338.282 575.617 341.986 584.876 338.9C578.086 344.455 573.457 355.258 577.16 363.592C572.839 355.876 561.419 352.172 551.852 356.802Z" fill="#B5D6CF"/>
<path d="M453.771 251.185V217.667H476.317V242.383L490.061 257.213H505.614L519.72 242.383V208.986L505.614 193.192H486.926L479.693 179.447L517.55 133.27V115.426H478.246V134.958H455.821V94.4473H539.975V141.107L515.741 170.766L542.144 200.667V251.185L515.5 279.639H480.416L453.771 251.185Z" fill="#75A7A4"/>
<path d="M360.328 135.247C360.328 135.247 378.716 119.923 379.329 121.762C380.239 126.444 375.652 130.343 375.652 133.408C375.652 137.086 380.555 135.86 380.555 140.15C380.555 144.441 375.652 143.024 375.652 146.28C375.652 148.732 380.555 150.571 379.329 156.7C378.716 157.926 360.328 145.667 360.328 145.667V135.247Z" fill="#75A7A4"/>
<path d="M337.037 121.609H359.085C360.449 121.609 361.554 122.715 361.554 124.079V154.692C361.554 156.056 360.449 157.161 359.085 157.161H337.037V121.609Z" fill="#75A7A4"/>
<path d="M360.328 184.284C360.328 184.284 378.716 168.96 379.329 170.799C380.239 175.48 375.652 179.38 375.652 182.445C375.652 186.123 380.555 184.897 380.555 189.187C380.555 193.478 375.652 192.061 375.652 195.317C375.652 197.769 380.555 199.608 379.329 205.737C378.716 206.963 360.328 194.704 360.328 194.704V184.284Z" fill="#75A7A4"/>
<path d="M337.037 170.646H359.085C360.449 170.646 361.554 171.75 361.554 173.115V203.727C361.554 205.091 360.449 206.197 359.085 206.197H337.037V170.646Z" fill="#75A7A4"/>
<path d="M360.328 233.32C360.328 233.32 378.716 217.996 379.329 219.835C380.239 224.517 375.652 228.417 375.652 231.481C375.652 235.159 380.555 233.933 380.555 238.224C380.555 242.515 375.652 241.097 375.652 244.354C375.652 246.805 380.555 248.644 379.329 254.774C378.716 256 360.328 243.741 360.328 243.741V233.32Z" fill="#75A7A4"/>
<path d="M337.037 219.682H359.085C360.449 219.682 361.554 220.787 361.554 222.151V252.764C361.554 254.128 360.449 255.233 359.085 255.233H337.037V219.682Z" fill="#75A7A4"/>
<path d="M453.124 268.167C453.606 267.464 453.429 266.503 452.726 266.02L441.278 258.156C440.576 257.674 439.615 257.852 439.132 258.554C438.65 259.257 438.828 260.218 439.531 260.7L449.706 267.691L442.716 277.867C442.234 278.57 442.411 279.53 443.114 280.013C443.816 280.496 444.777 280.317 445.26 279.615L453.124 268.167ZM212.627 313.256L452.134 268.81L451.571 265.775L212.064 310.221L212.627 313.256Z" fill="#748B43"/>
<path d="M323.616 190.431C324.464 190.342 325.08 189.583 324.992 188.736L323.551 174.921C323.462 174.073 322.703 173.458 321.856 173.546C321.008 173.635 320.392 174.393 320.481 175.241L321.761 187.521L309.482 188.801C308.635 188.89 308.019 189.649 308.108 190.496C308.196 191.344 308.955 191.96 309.803 191.871L323.616 190.431ZM211.373 99.9679L322.484 190.094L324.429 187.697L213.318 97.5703L211.373 99.9679Z" fill="#748B43"/>
<path d="M12.0007 297.729C13.1068 297.729 14.134 297.531 15.0821 297.136C16.0303 296.741 16.85 296.188 17.5414 295.477C18.2525 294.746 18.8056 293.887 19.2007 292.899C19.5957 291.911 19.7932 290.825 19.7932 289.64C19.7932 288.435 19.5957 287.338 19.2007 286.351C18.8056 285.363 18.2624 284.514 17.571 283.802C16.8797 283.091 16.0599 282.538 15.1118 282.143C14.1636 281.728 13.1266 281.521 12.0007 281.521C10.8747 281.521 9.83769 281.718 8.88954 282.113C7.94139 282.509 7.12164 283.072 6.43028 283.802C5.73892 284.514 5.19571 285.363 4.80065 286.351C4.40559 287.338 4.20806 288.435 4.20806 289.64C4.20806 290.825 4.39571 291.911 4.77102 292.899C5.16608 293.887 5.70929 294.746 6.40065 295.477C7.11176 296.188 7.94139 296.741 8.88954 297.136C9.83769 297.531 10.8747 297.729 12.0007 297.729ZM12.0007 300.277C10.4007 300.277 8.93892 300.01 7.61547 299.477C6.31176 298.944 5.19571 298.203 4.26732 297.255C3.33892 296.287 2.61793 295.151 2.10435 293.847C1.59077 292.543 1.33398 291.131 1.33398 289.61C1.33398 288.109 1.59077 286.716 2.10435 285.432C2.61793 284.128 3.33892 283.002 4.26732 282.054C5.19571 281.086 6.31176 280.336 7.61547 279.802C8.91917 279.249 10.3809 278.973 12.0007 278.973C13.6007 278.973 15.0525 279.239 16.3562 279.773C17.6599 280.306 18.776 281.057 19.7044 282.025C20.6525 282.973 21.3735 284.099 21.8673 285.402C22.3809 286.706 22.6377 288.128 22.6377 289.669C22.6377 291.171 22.3809 292.573 21.8673 293.877C21.3735 295.161 20.6624 296.277 19.734 297.225C18.8056 298.173 17.6797 298.924 16.3562 299.477C15.0525 300.01 13.6007 300.277 12.0007 300.277ZM30.3583 295.477C29.5682 295.477 28.8472 295.388 28.1953 295.21C27.5435 295.032 26.9904 294.746 26.5361 294.351C26.1015 293.956 25.7558 293.452 25.499 292.84C25.262 292.208 25.1435 291.447 25.1435 290.558V286.795H27.7805V290.44C27.7805 290.874 27.8299 291.259 27.9287 291.595C28.0274 291.931 28.1855 292.218 28.4027 292.455C28.62 292.672 28.9262 292.84 29.3213 292.958C29.7361 293.077 30.2497 293.136 30.862 293.136C31.4546 293.136 31.9978 293.087 32.4916 292.988C33.0052 292.889 33.4892 292.741 33.9435 292.543V294.736C33.5682 294.914 33.0744 295.082 32.462 295.24C31.8694 295.398 31.1682 295.477 30.3583 295.477ZM33.5879 300.01V286.795H36.225V300.01H33.5879ZM49.1023 300.01L43.2948 293.106L48.1837 286.795H50.9986V287.18L46.3171 292.84L52.1245 299.655V300.01H49.1023ZM40.9837 294.025V291.892H44.5689V294.025H40.9837ZM40.1245 300.01V296.721V296.277V290.677V290.469V286.795H42.7615V290.469V290.677V300.01H40.1245ZM54.2738 300.01V286.795H56.9108V297.344L55.2219 297.492L64.2593 286.795H66.0371V300.01H63.3704V289.462L64.8815 289.314L55.8442 300.01H54.2738ZM86.834 300.01L81.0266 293.106L85.9155 286.795H88.7303V287.18L84.0488 292.84L89.8562 299.655V300.01H86.834ZM78.7155 294.025V291.892H82.3007V294.025H78.7155ZM77.8562 300.01V296.721V296.277V290.677V290.469V286.795H80.4932V290.469V290.677V300.01H77.8562ZM97.4111 300.247C96.4235 300.247 95.505 300.08 94.6556 299.744C93.826 299.388 93.105 298.904 92.4926 298.292C91.8803 297.679 91.3963 296.958 91.0408 296.129C90.705 295.279 90.5371 294.361 90.5371 293.373C90.5371 292.385 90.705 291.477 91.0408 290.647C91.3963 289.798 91.8803 289.077 92.4926 288.484C93.105 287.872 93.826 287.398 94.6556 287.062C95.505 286.726 96.4235 286.558 97.4111 286.558C98.3988 286.558 99.3074 286.726 100.137 287.062C100.986 287.398 101.717 287.872 102.33 288.484C102.942 289.077 103.416 289.788 103.752 290.617C104.107 291.447 104.285 292.366 104.285 293.373C104.285 294.361 104.107 295.279 103.752 296.129C103.396 296.958 102.912 297.679 102.3 298.292C101.688 298.904 100.967 299.388 100.137 299.744C99.3074 300.08 98.3988 300.247 97.4111 300.247ZM97.4111 297.907C98.0432 297.907 98.6161 297.798 99.1297 297.581C99.6432 297.363 100.078 297.057 100.433 296.662C100.789 296.247 101.065 295.763 101.263 295.21C101.461 294.637 101.559 294.025 101.559 293.373C101.559 292.701 101.461 292.099 101.263 291.566C101.085 291.013 100.809 290.538 100.433 290.143C100.078 289.748 99.6432 289.442 99.1297 289.225C98.6161 289.008 98.0432 288.899 97.4111 288.899C96.779 288.899 96.2062 289.008 95.6926 289.225C95.179 289.442 94.7346 289.748 94.3593 290.143C94.0037 290.538 93.7272 291.013 93.5297 291.566C93.3321 292.099 93.2334 292.701 93.2334 293.373C93.2334 294.025 93.3321 294.627 93.5297 295.181C93.7272 295.734 94.0037 296.218 94.3593 296.633C94.7346 297.047 95.179 297.363 95.6926 297.581C96.2062 297.798 96.779 297.907 97.4111 297.907ZM109.926 300.01V289.166H105.63V286.795H116.889V289.166H112.592V300.01H109.926ZM124.899 300.247C123.912 300.247 122.993 300.08 122.144 299.744C121.314 299.388 120.593 298.904 119.981 298.292C119.369 297.679 118.885 296.958 118.529 296.129C118.193 295.279 118.025 294.361 118.025 293.373C118.025 292.385 118.193 291.477 118.529 290.647C118.885 289.798 119.369 289.077 119.981 288.484C120.593 287.872 121.314 287.398 122.144 287.062C122.993 286.726 123.912 286.558 124.899 286.558C125.887 286.558 126.796 286.726 127.625 287.062C128.475 287.398 129.206 287.872 129.818 288.484C130.43 289.077 130.904 289.788 131.24 290.617C131.596 291.447 131.773 292.366 131.773 293.373C131.773 294.361 131.596 295.279 131.24 296.129C130.885 296.958 130.401 297.679 129.788 298.292C129.176 298.904 128.455 299.388 127.625 299.744C126.796 300.08 125.887 300.247 124.899 300.247ZM124.899 297.907C125.532 297.907 126.104 297.798 126.618 297.581C127.132 297.363 127.566 297.057 127.922 296.662C128.277 296.247 128.554 295.763 128.751 295.21C128.949 294.637 129.048 294.025 129.048 293.373C129.048 292.701 128.949 292.099 128.751 291.566C128.573 291.013 128.297 290.538 127.922 290.143C127.566 289.748 127.132 289.442 126.618 289.225C126.104 289.008 125.532 288.899 124.899 288.899C124.267 288.899 123.694 289.008 123.181 289.225C122.667 289.442 122.223 289.748 121.848 290.143C121.492 290.538 121.215 291.013 121.018 291.566C120.82 292.099 120.722 292.701 120.722 293.373C120.722 294.025 120.82 294.627 121.018 295.181C121.215 295.734 121.492 296.218 121.848 296.633C122.223 297.047 122.667 297.363 123.181 297.581C123.694 297.798 124.267 297.907 124.899 297.907ZM137.611 307.122H134.974V290.677V290.469V286.795H137.463V290.469L137.611 290.677V296.307V296.721V307.122ZM142.144 300.247C141.473 300.247 140.841 300.149 140.248 299.951C139.675 299.754 139.162 299.497 138.707 299.181C138.273 298.845 137.898 298.46 137.582 298.025C137.285 297.591 137.088 297.126 136.989 296.633V293.492H137.611C137.611 294.045 137.7 294.588 137.878 295.121C138.075 295.655 138.342 296.129 138.678 296.544C139.033 296.939 139.458 297.265 139.952 297.521C140.465 297.758 141.038 297.877 141.67 297.877C142.263 297.877 142.806 297.768 143.3 297.551C143.794 297.334 144.209 297.028 144.544 296.633C144.9 296.237 145.177 295.763 145.374 295.21C145.572 294.657 145.67 294.045 145.67 293.373C145.67 292.662 145.562 292.03 145.344 291.477C145.147 290.924 144.861 290.459 144.485 290.084C144.13 289.709 143.705 289.432 143.211 289.254C142.737 289.057 142.214 288.958 141.641 288.958C140.989 288.958 140.416 289.077 139.922 289.314C139.428 289.551 139.004 289.857 138.648 290.232C138.312 290.608 138.056 291.062 137.878 291.595C137.7 292.109 137.611 292.642 137.611 293.195H137.137V289.817C137.196 289.422 137.354 289.037 137.611 288.662C137.888 288.267 138.233 287.911 138.648 287.595C139.083 287.279 139.596 287.032 140.189 286.854C140.782 286.657 141.433 286.558 142.144 286.558C142.994 286.558 143.804 286.726 144.574 287.062C145.344 287.378 146.016 287.832 146.589 288.425C147.162 289.017 147.616 289.738 147.952 290.588C148.288 291.418 148.456 292.356 148.456 293.403C148.456 294.45 148.278 295.398 147.922 296.247C147.586 297.097 147.122 297.818 146.53 298.41C145.957 299.003 145.285 299.457 144.515 299.773C143.744 300.089 142.954 300.247 142.144 300.247ZM156.944 291.062C158.741 291.062 160.104 291.418 161.033 292.129C161.961 292.84 162.425 293.956 162.425 295.477C162.425 296.978 161.951 298.114 161.003 298.884C160.075 299.635 158.623 300.01 156.648 300.01H151.67V286.795H154.307V291.062H156.944ZM164.085 300.01V286.795H166.722V300.01H164.085ZM156.292 297.758C156.806 297.758 157.27 297.729 157.685 297.67C158.119 297.61 158.485 297.502 158.781 297.344C159.077 297.186 159.304 296.958 159.462 296.662C159.64 296.366 159.729 295.971 159.729 295.477C159.729 294.627 159.443 294.055 158.87 293.758C158.317 293.442 157.527 293.284 156.499 293.284H154.307V297.758H156.292ZM176.898 300.247C175.89 300.247 174.962 300.089 174.112 299.773C173.283 299.438 172.552 298.973 171.92 298.381C171.307 297.788 170.823 297.077 170.468 296.247C170.132 295.418 169.964 294.479 169.964 293.432C169.964 292.346 170.142 291.378 170.498 290.529C170.873 289.679 171.377 288.968 172.009 288.395C172.641 287.803 173.362 287.348 174.172 287.032C175.001 286.716 175.87 286.558 176.779 286.558C177.806 286.558 178.715 286.746 179.505 287.121C180.315 287.477 180.996 287.97 181.549 288.603C182.103 289.215 182.517 289.926 182.794 290.736C183.09 291.526 183.238 292.356 183.238 293.225V293.966H171.594V292.01H182.201L180.661 293.581V292.781C180.661 292.227 180.562 291.714 180.364 291.24C180.167 290.766 179.88 290.351 179.505 289.995C179.149 289.64 178.725 289.363 178.231 289.166C177.737 288.948 177.194 288.84 176.601 288.84C176.028 288.84 175.485 288.948 174.972 289.166C174.478 289.363 174.053 289.659 173.698 290.055C173.342 290.45 173.056 290.924 172.838 291.477C172.641 292.03 172.542 292.652 172.542 293.344C172.542 294.055 172.651 294.697 172.868 295.269C173.105 295.842 173.421 296.336 173.816 296.751C174.231 297.146 174.715 297.452 175.268 297.67C175.821 297.887 176.423 297.995 177.075 297.995C177.905 297.995 178.665 297.837 179.357 297.521C180.068 297.205 180.651 296.771 181.105 296.218L182.705 297.699C182.053 298.549 181.214 299.191 180.186 299.625C179.159 300.04 178.063 300.247 176.898 300.247ZM2.07472 330.876V317.66H13.5118V330.876H10.8747V320.031H4.71176V330.876H2.07472ZM20.3078 337.987H17.6708V321.542V321.335V317.66H20.1597V321.335L20.3078 321.542V327.172V327.587V337.987ZM24.8411 331.113C24.1695 331.113 23.5374 331.014 22.9448 330.816C22.372 330.619 21.8584 330.362 21.4041 330.046C20.9695 329.71 20.5942 329.325 20.2782 328.89C19.9819 328.456 19.7844 327.992 19.6856 327.498V324.357H20.3078C20.3078 324.91 20.3967 325.453 20.5745 325.987C20.772 326.52 21.0387 326.994 21.3745 327.409C21.73 327.804 22.1547 328.13 22.6486 328.387C23.1621 328.624 23.735 328.742 24.3671 328.742C24.9597 328.742 25.5029 328.634 25.9967 328.416C26.4905 328.199 26.9053 327.893 27.2411 327.498C27.5967 327.103 27.8732 326.629 28.0708 326.075C28.2683 325.522 28.3671 324.91 28.3671 324.238C28.3671 323.527 28.2584 322.895 28.0411 322.342C27.8436 321.789 27.5572 321.325 27.1819 320.949C26.8263 320.574 26.4016 320.297 25.9078 320.12C25.4337 319.922 24.9103 319.823 24.3374 319.823C23.6856 319.823 23.1128 319.942 22.6189 320.179C22.1251 320.416 21.7004 320.722 21.3448 321.097C21.009 321.473 20.7523 321.927 20.5745 322.461C20.3967 322.974 20.3078 323.507 20.3078 324.061H19.8337V320.683C19.893 320.288 20.051 319.902 20.3078 319.527C20.5844 319.132 20.93 318.776 21.3448 318.46C21.7794 318.144 22.293 317.897 22.8856 317.72C23.4782 317.522 24.13 317.423 24.8411 317.423C25.6905 317.423 26.5004 317.591 27.2708 317.927C28.0411 318.243 28.7127 318.697 29.2856 319.29C29.8584 319.883 30.3127 320.604 30.6486 321.453C30.9844 322.283 31.1523 323.221 31.1523 324.268C31.1523 325.315 30.9745 326.263 30.6189 327.113C30.2831 327.962 29.8189 328.683 29.2263 329.276C28.6535 329.868 27.9819 330.323 27.2115 330.639C26.4411 330.955 25.651 331.113 24.8411 331.113ZM34.3664 330.876V317.66H37.0034V328.209L35.3145 328.357L44.3516 317.66H46.1294V330.876H43.4627V320.327L44.9738 320.179L35.9368 330.876H34.3664ZM51.674 325.098V322.757H60.5629V325.098H51.674ZM50.2518 330.876V327.587V327.142V321.542V321.335V317.66H52.8889V321.335V321.542V330.876H50.2518ZM59.4074 330.876V327.587V327.142V321.542V321.335V317.66H62.0445V321.335V321.542V330.876H59.4074ZM72.1507 331.113C71.163 331.113 70.2445 330.945 69.3951 330.609C68.5655 330.253 67.8445 329.769 67.2321 329.157C66.6198 328.545 66.1358 327.824 65.7803 326.994C65.4445 326.145 65.2766 325.226 65.2766 324.238C65.2766 323.251 65.4445 322.342 65.7803 321.512C66.1358 320.663 66.6198 319.942 67.2321 319.349C67.8445 318.737 68.5655 318.263 69.3951 317.927C70.2445 317.591 71.163 317.423 72.1507 317.423C73.1383 317.423 74.0469 317.591 74.8766 317.927C75.726 318.263 76.4568 318.737 77.0692 319.349C77.6815 319.942 78.1556 320.653 78.4914 321.483C78.8469 322.312 79.0247 323.231 79.0247 324.238C79.0247 325.226 78.8469 326.145 78.4914 326.994C78.1358 327.824 77.6519 328.545 77.0395 329.157C76.4272 329.769 75.7062 330.253 74.8766 330.609C74.0469 330.945 73.1383 331.113 72.1507 331.113ZM72.1507 328.772C72.7827 328.772 73.3556 328.663 73.8692 328.446C74.3827 328.229 74.8173 327.922 75.1729 327.527C75.5284 327.113 75.805 326.629 76.0025 326.075C76.2 325.503 76.2988 324.89 76.2988 324.238C76.2988 323.567 76.2 322.964 76.0025 322.431C75.8247 321.878 75.5482 321.404 75.1729 321.009C74.8173 320.614 74.3827 320.307 73.8692 320.09C73.3556 319.873 72.7827 319.764 72.1507 319.764C71.5185 319.764 70.9457 319.873 70.4321 320.09C69.9185 320.307 69.4741 320.614 69.0988 321.009C68.7432 321.404 68.4667 321.878 68.2692 322.431C68.0716 322.964 67.9729 323.567 67.9729 324.238C67.9729 324.89 68.0716 325.493 68.2692 326.046C68.4667 326.599 68.7432 327.083 69.0988 327.498C69.4741 327.913 69.9185 328.229 70.4321 328.446C70.9457 328.663 71.5185 328.772 72.1507 328.772ZM88.1809 331.113C87.134 331.113 86.176 330.945 85.3068 330.609C84.4574 330.253 83.7365 329.769 83.1439 329.157C82.5513 328.545 82.0969 327.824 81.7809 326.994C81.4648 326.145 81.3068 325.226 81.3068 324.238C81.3068 323.172 81.4846 322.223 81.8402 321.394C82.1957 320.544 82.6797 319.833 83.292 319.26C83.9044 318.668 84.6253 318.213 85.455 317.897C86.3044 317.581 87.213 317.423 88.1809 317.423C88.6945 317.423 89.1982 317.473 89.692 317.571C90.1858 317.67 90.65 317.809 91.0846 317.986C91.5192 318.144 91.9241 318.352 92.2994 318.609C92.6747 318.846 93.0006 319.112 93.2772 319.409L91.8253 321.335C91.4105 320.86 90.8969 320.485 90.2846 320.209C89.6722 319.912 89.0105 319.764 88.2994 319.764C87.6871 319.764 87.1142 319.873 86.5809 320.09C86.0673 320.288 85.613 320.584 85.2179 320.979C84.8426 321.354 84.5463 321.819 84.329 322.372C84.1118 322.905 84.0031 323.507 84.0031 324.179C84.0031 324.87 84.1118 325.503 84.329 326.075C84.5463 326.629 84.8525 327.113 85.2476 327.527C85.6426 327.922 86.1068 328.229 86.6402 328.446C87.1735 328.663 87.7661 328.772 88.4179 328.772C89.1883 328.772 89.8599 328.634 90.4327 328.357C91.0253 328.061 91.5192 327.675 91.9142 327.201L93.5439 328.801C92.971 329.493 92.2303 330.056 91.3216 330.49C90.413 330.905 89.3661 331.113 88.1809 331.113ZM96.3167 330.876V317.66H98.9537V328.209L97.2648 328.357L106.302 317.66H108.08V330.876H105.413V320.327L106.924 320.179L97.8871 330.876H96.3167ZM115.076 330.876V320.031H110.78V317.66H122.039V320.031H117.743V330.876H115.076ZM141.435 330.876L135.627 323.972L140.516 317.66H143.331V318.046L138.649 323.705L144.457 330.52V330.876H141.435ZM133.316 324.89V322.757H136.901V324.89H133.316ZM132.457 330.876V327.587V327.142V321.542V321.335V317.66H135.094V321.335V321.542V330.876H132.457ZM156.101 330.876V327.587L155.952 327.142V321.542L156.101 321.335V317.66H158.619V321.335V321.542V330.876H156.101ZM151.449 331.113C150.619 331.113 149.819 330.955 149.049 330.639C148.278 330.323 147.607 329.868 147.034 329.276C146.461 328.683 145.997 327.962 145.641 327.113C145.306 326.263 145.138 325.315 145.138 324.268C145.138 323.221 145.296 322.283 145.612 321.453C145.948 320.604 146.402 319.883 146.975 319.29C147.567 318.697 148.239 318.243 148.99 317.927C149.76 317.591 150.58 317.423 151.449 317.423C152.16 317.423 152.802 317.522 153.375 317.72C153.967 317.897 154.481 318.144 154.915 318.46C155.35 318.776 155.696 319.132 155.952 319.527C156.229 319.902 156.387 320.288 156.427 320.683V324.061H155.952C155.952 323.507 155.864 322.974 155.686 322.461C155.508 321.927 155.251 321.473 154.915 321.097C154.58 320.722 154.155 320.416 153.641 320.179C153.148 319.942 152.585 319.823 151.952 319.823C151.38 319.823 150.846 319.922 150.353 320.12C149.859 320.297 149.424 320.574 149.049 320.949C148.693 321.325 148.407 321.789 148.19 322.342C147.992 322.895 147.893 323.527 147.893 324.238C147.893 324.91 147.992 325.522 148.19 326.075C148.387 326.629 148.664 327.103 149.019 327.498C149.375 327.893 149.799 328.199 150.293 328.416C150.787 328.634 151.32 328.742 151.893 328.742C152.545 328.742 153.118 328.624 153.612 328.387C154.125 328.13 154.55 327.804 154.886 327.409C155.222 326.994 155.478 326.52 155.656 325.987C155.854 325.453 155.952 324.91 155.952 324.357H156.575V327.498C156.476 327.992 156.269 328.456 155.952 328.89C155.656 329.325 155.281 329.71 154.827 330.046C154.392 330.362 153.878 330.619 153.286 330.816C152.713 331.014 152.101 331.113 151.449 331.113ZM165.389 337.987H162.752V321.542V321.335V317.66H165.241V321.335L165.389 321.542V327.172V327.587V337.987ZM169.922 331.113C169.251 331.113 168.619 331.014 168.026 330.816C167.453 330.619 166.94 330.362 166.485 330.046C166.051 329.71 165.675 329.325 165.359 328.89C165.063 328.456 164.865 327.992 164.767 327.498V324.357H165.389C165.389 324.91 165.478 325.453 165.656 325.987C165.853 326.52 166.12 326.994 166.456 327.409C166.811 327.804 167.236 328.13 167.73 328.387C168.243 328.624 168.816 328.742 169.448 328.742C170.041 328.742 170.584 328.634 171.078 328.416C171.572 328.199 171.986 327.893 172.322 327.498C172.678 327.103 172.954 326.629 173.152 326.075C173.349 325.522 173.448 324.91 173.448 324.238C173.448 323.527 173.34 322.895 173.122 322.342C172.925 321.789 172.638 321.325 172.263 320.949C171.907 320.574 171.483 320.297 170.989 320.12C170.515 319.922 169.991 319.823 169.419 319.823C168.767 319.823 168.194 319.942 167.7 320.179C167.206 320.416 166.782 320.722 166.426 321.097C166.09 321.473 165.833 321.927 165.656 322.461C165.478 322.974 165.389 323.507 165.389 324.061H164.915V320.683C164.974 320.288 165.132 319.902 165.389 319.527C165.665 319.132 166.011 318.776 166.426 318.46C166.861 318.144 167.374 317.897 167.967 317.72C168.559 317.522 169.211 317.423 169.922 317.423C170.772 317.423 171.582 317.591 172.352 317.927C173.122 318.243 173.794 318.697 174.367 319.29C174.94 319.883 175.394 320.604 175.73 321.453C176.065 322.283 176.233 323.221 176.233 324.268C176.233 325.315 176.056 326.263 175.7 327.113C175.364 327.962 174.9 328.683 174.307 329.276C173.735 329.868 173.063 330.323 172.293 330.639C171.522 330.955 170.732 331.113 169.922 331.113ZM181.888 330.876V320.031H177.591V317.66H188.851V320.031H184.554V330.876H181.888ZM200.95 330.876V327.587L200.802 327.142V321.542L200.95 321.335V317.66H203.469V321.335V321.542V330.876H200.95ZM196.298 331.113C195.469 331.113 194.669 330.955 193.898 330.639C193.128 330.323 192.456 329.868 191.883 329.276C191.311 328.683 190.846 327.962 190.491 327.113C190.155 326.263 189.987 325.315 189.987 324.268C189.987 323.221 190.145 322.283 190.461 321.453C190.797 320.604 191.251 319.883 191.824 319.29C192.417 318.697 193.088 318.243 193.839 317.927C194.609 317.591 195.429 317.423 196.298 317.423C197.009 317.423 197.651 317.522 198.224 317.72C198.817 317.897 199.33 318.144 199.765 318.46C200.199 318.776 200.545 319.132 200.802 319.527C201.078 319.902 201.236 320.288 201.276 320.683V324.061H200.802C200.802 323.507 200.713 322.974 200.535 322.461C200.357 321.927 200.101 321.473 199.765 321.097C199.429 320.722 199.004 320.416 198.491 320.179C197.997 319.942 197.434 319.823 196.802 319.823C196.229 319.823 195.696 319.922 195.202 320.12C194.708 320.297 194.273 320.574 193.898 320.949C193.543 321.325 193.256 321.789 193.039 322.342C192.841 322.895 192.743 323.527 192.743 324.238C192.743 324.91 192.841 325.522 193.039 326.075C193.236 326.629 193.513 327.103 193.869 327.498C194.224 327.893 194.649 328.199 195.143 328.416C195.636 328.634 196.17 328.742 196.743 328.742C197.394 328.742 197.967 328.624 198.461 328.387C198.975 328.13 199.399 327.804 199.735 327.409C200.071 326.994 200.328 326.52 200.506 325.987C200.703 325.453 200.802 324.91 200.802 324.357H201.424V327.498C201.325 327.992 201.118 328.456 200.802 328.89C200.506 329.325 200.13 329.71 199.676 330.046C199.241 330.362 198.728 330.619 198.135 330.816C197.562 331.014 196.95 331.113 196.298 331.113Z" fill="#50703E"/>
<path d="M32.3698 54.5101C33.476 54.5101 34.5031 54.3126 35.4513 53.9175C36.3994 53.5224 37.2192 52.9693 37.9105 52.2582C38.6216 51.5273 39.1747 50.668 39.5698 49.6803C39.9649 48.6926 40.1624 47.6062 40.1624 46.4209C40.1624 45.2159 39.9649 44.1196 39.5698 43.1319C39.1747 42.1442 38.6315 41.2948 37.9402 40.5837C37.2488 39.8726 36.4291 39.3195 35.4809 38.9244C34.5328 38.5096 33.4957 38.3021 32.3698 38.3021C31.2439 38.3021 30.2068 38.4997 29.2587 38.8948C28.3105 39.2898 27.4908 39.8528 26.7994 40.5837C26.1081 41.2948 25.5649 42.1442 25.1698 43.1319C24.7747 44.1196 24.5772 45.2159 24.5772 46.4209C24.5772 47.6062 24.7649 48.6926 25.1402 49.6803C25.5352 50.668 26.0784 51.5273 26.7698 52.2582C27.4809 52.9693 28.3105 53.5224 29.2587 53.9175C30.2068 54.3126 31.2439 54.5101 32.3698 54.5101ZM32.3698 57.0583C30.7698 57.0583 29.3081 56.7916 27.9846 56.2583C26.6809 55.7249 25.5649 54.9842 24.6365 54.036C23.7081 53.0681 22.9871 51.9322 22.4735 50.6285C21.9599 49.3247 21.7031 47.9123 21.7031 46.3913C21.7031 44.89 21.9599 43.4974 22.4735 42.2134C22.9871 40.9096 23.7081 39.7837 24.6365 38.8355C25.5649 37.8676 26.6809 37.1169 27.9846 36.5836C29.2883 36.0305 30.75 35.7539 32.3698 35.7539C33.9698 35.7539 35.4216 36.0206 36.7253 36.5539C38.029 37.0873 39.1451 37.8379 40.0735 38.8059C41.0216 39.754 41.7426 40.88 42.2365 42.1838C42.75 43.4875 43.0068 44.9098 43.0068 46.4506C43.0068 47.9518 42.75 49.3544 42.2365 50.6581C41.7426 51.9421 41.0315 53.0582 40.1031 54.0064C39.1747 54.9545 38.0488 55.7052 36.7253 56.2583C35.4216 56.7916 33.9698 57.0583 32.3698 57.0583ZM50.7274 52.2582C49.9373 52.2582 49.2163 52.1693 48.5645 51.9915C47.9126 51.8137 47.3595 51.5273 46.9052 51.1322C46.4707 50.7371 46.125 50.2334 45.8682 49.621C45.6312 48.9889 45.5126 48.2284 45.5126 47.3395V43.5764H48.1497V47.221C48.1497 47.6555 48.1991 48.0407 48.2978 48.3765C48.3966 48.7124 48.5546 48.9988 48.7719 49.2358C48.9892 49.4531 49.2953 49.621 49.6904 49.7396C50.1052 49.8581 50.6188 49.9173 51.2311 49.9173C51.8237 49.9173 52.367 49.868 52.8608 49.7692C53.3744 49.6704 53.8583 49.5223 54.3126 49.3247V51.5174C53.9373 51.6952 53.4435 51.8631 52.8312 52.0211C52.2386 52.1791 51.5373 52.2582 50.7274 52.2582ZM53.9571 56.7916V43.5764H56.5941V56.7916H53.9571ZM69.4716 56.7916L63.6642 49.8877L68.5531 43.5764H71.3679V43.9616L66.6865 49.621L72.4939 56.4361V56.7916H69.4716ZM61.3529 50.8063V48.6729H64.9383V50.8063H61.3529ZM60.4936 56.7916V53.5026V53.0582V47.458V47.2506V43.5764H63.1309V47.2506V47.458V56.7916H60.4936ZM74.6432 56.7916V43.5764H77.2803V54.1249L75.5914 54.273L84.6284 43.5764H86.4062V56.7916H83.7395V46.2431L85.2506 46.095L76.2136 56.7916H74.6432ZM107.203 56.7916L101.396 49.8877L106.285 43.5764H109.099V43.9616L104.418 49.621L110.225 56.4361V56.7916H107.203ZM99.0846 50.8063V48.6729H102.67V50.8063H99.0846ZM98.2253 56.7916V53.5026V53.0582V47.458V47.2506V43.5764H100.862V47.2506V47.458V56.7916H98.2253ZM117.78 57.0287C116.793 57.0287 115.874 56.8608 115.025 56.525C114.195 56.1694 113.474 55.6854 112.862 55.0731C112.249 54.4607 111.765 53.7397 111.41 52.91C111.074 52.0606 110.906 51.1421 110.906 50.1544C110.906 49.1667 111.074 48.258 111.41 47.4284C111.765 46.579 112.249 45.8579 112.862 45.2653C113.474 44.653 114.195 44.1789 115.025 43.8431C115.874 43.5073 116.793 43.3393 117.78 43.3393C118.768 43.3393 119.677 43.5073 120.506 43.8431C121.356 44.1789 122.086 44.653 122.699 45.2653C123.311 45.8579 123.785 46.5691 124.121 47.3987C124.477 48.2284 124.654 49.1469 124.654 50.1544C124.654 51.1421 124.477 52.0606 124.121 52.91C123.765 53.7397 123.282 54.4607 122.669 55.0731C122.057 55.6854 121.336 56.1694 120.506 56.525C119.677 56.8608 118.768 57.0287 117.78 57.0287ZM117.78 54.6879C118.412 54.6879 118.985 54.5792 119.499 54.3619C120.012 54.1446 120.447 53.8385 120.803 53.4434C121.158 53.0286 121.435 52.5446 121.632 51.9915C121.83 51.4186 121.928 50.8063 121.928 50.1544C121.928 49.4828 121.83 48.8803 121.632 48.3469C121.454 47.7938 121.178 47.3197 120.803 46.9246C120.447 46.5296 120.012 46.2234 119.499 46.0061C118.985 45.7888 118.412 45.6802 117.78 45.6802C117.148 45.6802 116.575 45.7888 116.062 46.0061C115.548 46.2234 115.104 46.5296 114.728 46.9246C114.373 47.3197 114.096 47.7938 113.899 48.3469C113.701 48.8803 113.603 49.4828 113.603 50.1544C113.603 50.8063 113.701 51.4088 113.899 51.9619C114.096 52.515 114.373 52.9989 114.728 53.4138C115.104 53.8286 115.548 54.1446 116.062 54.3619C116.575 54.5792 117.148 54.6879 117.78 54.6879ZM130.295 56.7916V45.9468H125.999V43.5764H137.258V45.9468H132.961V56.7916H130.295ZM145.269 57.0287C144.281 57.0287 143.362 56.8608 142.513 56.525C141.683 56.1694 140.962 55.6854 140.35 55.0731C139.738 54.4607 139.254 53.7397 138.898 52.91C138.562 52.0606 138.394 51.1421 138.394 50.1544C138.394 49.1667 138.562 48.258 138.898 47.4284C139.254 46.579 139.738 45.8579 140.35 45.2653C140.962 44.653 141.683 44.1789 142.513 43.8431C143.362 43.5073 144.281 43.3393 145.269 43.3393C146.256 43.3393 147.165 43.5073 147.994 43.8431C148.844 44.1789 149.575 44.653 150.187 45.2653C150.799 45.8579 151.273 46.5691 151.609 47.3987C151.965 48.2284 152.143 49.1469 152.143 50.1544C152.143 51.1421 151.965 52.0606 151.609 52.91C151.254 53.7397 150.77 54.4607 150.157 55.0731C149.545 55.6854 148.824 56.1694 147.994 56.525C147.165 56.8608 146.256 57.0287 145.269 57.0287ZM145.269 54.6879C145.901 54.6879 146.473 54.5792 146.987 54.3619C147.501 54.1446 147.935 53.8385 148.291 53.4434C148.646 53.0286 148.923 52.5446 149.12 51.9915C149.318 51.4186 149.417 50.8063 149.417 50.1544C149.417 49.4828 149.318 48.8803 149.12 48.3469C148.943 47.7938 148.666 47.3197 148.291 46.9246C147.935 46.5296 147.501 46.2234 146.987 46.0061C146.473 45.7888 145.901 45.6802 145.269 45.6802C144.636 45.6802 144.064 45.7888 143.55 46.0061C143.036 46.2234 142.592 46.5296 142.217 46.9246C141.861 47.3197 141.585 47.7938 141.387 48.3469C141.19 48.8803 141.091 49.4828 141.091 50.1544C141.091 50.8063 141.19 51.4088 141.387 51.9619C141.585 52.515 141.861 52.9989 142.217 53.4138C142.592 53.8286 143.036 54.1446 143.55 54.3619C144.064 54.5792 144.636 54.6879 145.269 54.6879ZM157.98 63.903H155.343V47.458V47.2506V43.5764H157.832V47.2506L157.98 47.458V53.0878V53.5026V63.903ZM162.514 57.0287C161.842 57.0287 161.21 56.9299 160.617 56.7324C160.044 56.5348 159.531 56.278 159.077 55.962C158.642 55.6262 158.267 55.241 157.951 54.8064C157.654 54.3718 157.457 53.9076 157.358 53.4138V50.2729H157.98C157.98 50.826 158.069 51.3692 158.247 51.9026C158.444 52.4359 158.711 52.91 159.047 53.3249C159.403 53.7199 159.827 54.0459 160.321 54.3027C160.835 54.5397 161.407 54.6582 162.04 54.6582C162.632 54.6582 163.175 54.5496 163.669 54.3323C164.163 54.115 164.578 53.8088 164.914 53.4138C165.269 53.0187 165.546 52.5446 165.743 51.9915C165.941 51.4384 166.04 50.826 166.04 50.1544C166.04 49.4433 165.931 48.8111 165.714 48.258C165.516 47.7049 165.23 47.2407 164.854 46.8654C164.499 46.4901 164.074 46.2135 163.58 46.0357C163.106 45.8382 162.583 45.7394 162.01 45.7394C161.358 45.7394 160.785 45.8579 160.291 46.095C159.798 46.332 159.373 46.6382 159.017 47.0135C158.682 47.3889 158.425 47.8432 158.247 48.3765C158.069 48.8901 157.98 49.4235 157.98 49.9766H157.506V46.5987C157.565 46.2036 157.723 45.8184 157.98 45.4431C158.257 45.048 158.603 44.6925 159.017 44.3764C159.452 44.0604 159.965 43.8134 160.558 43.6357C161.151 43.4381 161.803 43.3393 162.514 43.3393C163.363 43.3393 164.173 43.5073 164.943 43.8431C165.714 44.1591 166.385 44.6135 166.958 45.2061C167.531 45.7987 167.985 46.5197 168.321 47.3691C168.657 48.1988 168.825 49.1371 168.825 50.184C168.825 51.231 168.647 52.1791 168.291 53.0286C167.956 53.878 167.491 54.599 166.899 55.1916C166.326 55.7842 165.654 56.2385 164.884 56.5546C164.114 56.8707 163.324 57.0287 162.514 57.0287ZM177.313 47.8432C179.111 47.8432 180.473 48.1988 181.402 48.9099C182.33 49.621 182.794 50.7371 182.794 52.2582C182.794 53.7594 182.32 54.8953 181.372 55.6657C180.444 56.4163 178.992 56.7916 177.017 56.7916H172.039V43.5764H174.676V47.8432H177.313ZM184.454 56.7916V43.5764H187.091V56.7916H184.454ZM176.661 54.5397C177.175 54.5397 177.639 54.5101 178.054 54.4508C178.488 54.3916 178.854 54.2829 179.15 54.1249C179.446 53.9669 179.673 53.7397 179.832 53.4434C180.009 53.1471 180.098 52.752 180.098 52.2582C180.098 51.4087 179.812 50.8359 179.239 50.5396C178.686 50.2235 177.896 50.0655 176.869 50.0655H174.676V54.5397H176.661ZM197.267 57.0287C196.259 57.0287 195.331 56.8707 194.482 56.5546C193.652 56.2188 192.921 55.7546 192.289 55.162C191.677 54.5693 191.193 53.8582 190.837 53.0286C190.501 52.1989 190.333 51.2606 190.333 50.2136C190.333 49.1272 190.511 48.1593 190.867 47.3098C191.242 46.4604 191.746 45.7493 192.378 45.1764C193.01 44.5838 193.731 44.1295 194.541 43.8134C195.37 43.4974 196.24 43.3393 197.148 43.3393C198.175 43.3393 199.084 43.527 199.874 43.9023C200.684 44.2579 201.365 44.7517 201.919 45.3839C202.472 45.9962 202.886 46.7074 203.163 47.5173C203.459 48.3074 203.607 49.1371 203.607 50.0062V50.747H191.963V48.7914H202.57L201.03 50.3618V49.5618C201.03 49.0087 200.931 48.4951 200.733 48.021C200.536 47.5469 200.249 47.1321 199.874 46.7765C199.519 46.4209 199.094 46.1444 198.6 45.9468C198.106 45.7295 197.563 45.6209 196.97 45.6209C196.398 45.6209 195.854 45.7295 195.341 45.9468C194.847 46.1444 194.422 46.4407 194.067 46.8358C193.711 47.2308 193.425 47.7049 193.207 48.258C193.01 48.8111 192.911 49.4334 192.911 50.1248C192.911 50.8359 193.02 51.4779 193.237 52.0507C193.474 52.6236 193.79 53.1174 194.185 53.5323C194.6 53.9274 195.084 54.2335 195.637 54.4508C196.19 54.6681 196.793 54.7768 197.444 54.7768C198.274 54.7768 199.035 54.6187 199.726 54.3027C200.437 53.9866 201.02 53.552 201.474 52.9989L203.074 54.4805C202.422 55.3299 201.583 55.9719 200.556 56.4064C199.528 56.8213 198.432 57.0287 197.267 57.0287ZM22.4439 87.6569V74.4416H33.8809V87.6569H31.2439V76.8121H25.0809V87.6569H22.4439ZM40.677 94.7682H38.0399V78.3232V78.1158V74.4416H40.5288V78.1158L40.677 78.3232V83.953V84.3679V94.7682ZM45.2103 87.8939C44.5387 87.8939 43.9066 87.7952 43.314 87.5976C42.7411 87.4001 42.2276 87.1433 41.7732 86.8272C41.3387 86.4914 40.9634 86.1062 40.6473 85.6716C40.351 85.237 40.1535 84.7728 40.0547 84.279V81.1381H40.677C40.677 81.6912 40.7658 82.2345 40.9436 82.7678C41.1411 83.3012 41.4078 83.7753 41.7436 84.1901C42.0992 84.5852 42.5239 84.9111 43.0177 85.1679C43.5313 85.4049 44.1041 85.5235 44.7362 85.5235C45.3288 85.5235 45.872 85.4148 46.3658 85.1975C46.8597 84.9802 47.2745 84.6741 47.6103 84.279C47.9658 83.8839 48.2424 83.4098 48.4399 82.8567C48.6374 82.3036 48.7362 81.6912 48.7362 81.0196C48.7362 80.3085 48.6276 79.6764 48.4103 79.1232C48.2128 78.5701 47.9263 78.1059 47.551 77.7306C47.1955 77.3553 46.7708 77.0787 46.277 76.901C45.8029 76.7034 45.2794 76.6047 44.7066 76.6047C44.0547 76.6047 43.4819 76.7232 42.9881 76.9602C42.4942 77.1973 42.0695 77.5034 41.714 77.8788C41.3782 78.2541 41.1214 78.7084 40.9436 79.2418C40.7658 79.7554 40.677 80.2887 40.677 80.8418H40.2029V77.4639C40.2621 77.0689 40.4202 76.6837 40.677 76.3083C40.9535 75.9133 41.2992 75.5577 41.714 75.2416C42.1486 74.9256 42.6621 74.6787 43.2547 74.5009C43.8473 74.3033 44.4992 74.2046 45.2103 74.2046C46.0597 74.2046 46.8695 74.3725 47.6399 74.7083C48.4103 75.0244 49.0819 75.4787 49.6547 76.0713C50.2276 76.6639 50.6819 77.3849 51.0177 78.2343C51.3535 79.064 51.5214 80.0023 51.5214 81.0492C51.5214 82.0962 51.3436 83.0444 50.9881 83.8938C50.6523 84.7432 50.1881 85.4642 49.5955 86.0568C49.0226 86.6494 48.351 87.1038 47.5807 87.4198C46.8103 87.7359 46.0202 87.8939 45.2103 87.8939ZM54.7355 87.6569V74.4416H57.3726V84.9901L55.6837 85.1383L64.721 74.4416H66.4988V87.6569H63.8321V77.1084L65.3433 76.9602L56.3059 87.6569H54.7355ZM72.0432 81.8789V79.5381H80.9321V81.8789H72.0432ZM70.621 87.6569V84.3679V83.9234V78.3232V78.1158V74.4416H73.2581V78.1158V78.3232V87.6569H70.621ZM79.7766 87.6569V84.3679V83.9234V78.3232V78.1158V74.4416H82.4136V78.1158V78.3232V87.6569H79.7766ZM92.5198 87.8939C91.5321 87.8939 90.6136 87.726 89.7642 87.3902C88.9346 87.0346 88.2136 86.5507 87.6013 85.9383C86.9889 85.3259 86.505 84.6049 86.1494 83.7753C85.8136 82.9258 85.6457 82.0073 85.6457 81.0196C85.6457 80.0319 85.8136 79.1233 86.1494 78.2936C86.505 77.4442 86.9889 76.7232 87.6013 76.1306C88.2136 75.5182 88.9346 75.0441 89.7642 74.7083C90.6136 74.3725 91.5321 74.2046 92.5198 74.2046C93.5074 74.2046 94.4161 74.3725 95.2457 74.7083C96.0951 75.0441 96.826 75.5182 97.4383 76.1306C98.0507 76.7232 98.5247 77.4343 98.8605 78.264C99.2161 79.0936 99.3939 80.0122 99.3939 81.0196C99.3939 82.0073 99.2161 82.9258 98.8605 83.7753C98.505 84.6049 98.021 85.3259 97.4087 85.9383C96.7963 86.5507 96.0753 87.0346 95.2457 87.3902C94.4161 87.726 93.5074 87.8939 92.5198 87.8939ZM92.5198 85.5531C93.1519 85.5531 93.7247 85.4444 94.2383 85.2272C94.7519 85.0099 95.1865 84.7037 95.542 84.3086C95.8976 83.8938 96.1741 83.4098 96.3716 82.8567C96.5692 82.2839 96.6679 81.6715 96.6679 81.0196C96.6679 80.348 96.5692 79.7455 96.3716 79.2122C96.1939 78.659 95.9173 78.1849 95.542 77.7899C95.1865 77.3948 94.7519 77.0886 94.2383 76.8713C93.7247 76.654 93.1519 76.5454 92.5198 76.5454C91.8877 76.5454 91.3148 76.654 90.8013 76.8713C90.2877 77.0886 89.8432 77.3948 89.4679 77.7899C89.1124 78.1849 88.8358 78.659 88.6383 79.2122C88.4408 79.7455 88.342 80.348 88.342 81.0196C88.342 81.6715 88.4408 82.274 88.6383 82.8271C88.8358 83.3802 89.1124 83.8642 89.4679 84.279C89.8432 84.6938 90.2877 85.0099 90.8013 85.2272C91.3148 85.4444 91.8877 85.5531 92.5198 85.5531ZM108.55 87.8939C107.503 87.8939 106.545 87.726 105.676 87.3902C104.827 87.0346 104.106 86.5507 103.513 85.9383C102.92 85.3259 102.466 84.6049 102.15 83.7753C101.834 82.9258 101.676 82.0073 101.676 81.0196C101.676 79.9529 101.854 79.0047 102.209 78.1751C102.565 77.3257 103.049 76.6145 103.661 76.0417C104.273 75.4491 104.994 74.9947 105.824 74.6787C106.673 74.3626 107.582 74.2046 108.55 74.2046C109.064 74.2046 109.567 74.254 110.061 74.3527C110.555 74.4515 111.019 74.5898 111.454 74.7676C111.888 74.9256 112.293 75.133 112.669 75.3898C113.044 75.6268 113.37 75.8935 113.646 76.1898L112.194 78.1158C111.78 77.6417 111.266 77.2664 110.654 76.9898C110.041 76.6935 109.38 76.5454 108.669 76.5454C108.056 76.5454 107.483 76.654 106.95 76.8713C106.436 77.0689 105.982 77.3652 105.587 77.7602C105.212 78.1356 104.915 78.5998 104.698 79.1529C104.481 79.6862 104.372 80.2887 104.372 80.9603C104.372 81.6517 104.481 82.2839 104.698 82.8567C104.915 83.4098 105.222 83.8938 105.617 84.3086C106.012 84.7037 106.476 85.0099 107.009 85.2272C107.543 85.4444 108.135 85.5531 108.787 85.5531C109.557 85.5531 110.229 85.4148 110.802 85.1383C111.394 84.842 111.888 84.4568 112.283 83.9827L113.913 85.5827C113.34 86.2741 112.599 86.8371 111.691 87.2717C110.782 87.6865 109.735 87.8939 108.55 87.8939ZM116.686 87.6569V74.4416H119.323V84.9901L117.634 85.1383L126.671 74.4416H128.449V87.6569H125.782V77.1084L127.293 76.9602L118.256 87.6569H116.686ZM135.445 87.6569V76.8121H131.149V74.4416H142.408V76.8121H138.112V87.6569H135.445ZM31.4216 118.522L25.6142 111.618L30.5031 105.307H33.3179V105.692L28.6365 111.351L34.4439 118.167V118.522H31.4216ZM23.3031 112.537V110.403H26.8883V112.537H23.3031ZM22.4439 118.522V115.233V114.789V109.188V108.981V105.307H25.0809V108.981V109.188V118.522H22.4439ZM41.999 118.759C41.0113 118.759 40.0928 118.591 39.2434 118.255C38.4138 117.9 37.6928 117.416 37.0805 116.804C36.4681 116.191 35.9842 115.47 35.6286 114.64C35.2928 113.791 35.1249 112.873 35.1249 111.885C35.1249 110.897 35.2928 109.988 35.6286 109.159C35.9842 108.309 36.4681 107.588 37.0805 106.996C37.6928 106.383 38.4138 105.909 39.2434 105.574C40.0928 105.238 41.0113 105.07 41.999 105.07C42.9866 105.07 43.8953 105.238 44.7249 105.574C45.5743 105.909 46.3052 106.383 46.9175 106.996C47.5299 107.588 48.0039 108.3 48.3397 109.129C48.6953 109.959 48.8731 110.877 48.8731 111.885C48.8731 112.873 48.6953 113.791 48.3397 114.64C47.9842 115.47 47.5002 116.191 46.8879 116.804C46.2755 117.416 45.5545 117.9 44.7249 118.255C43.8953 118.591 42.9866 118.759 41.999 118.759ZM41.999 116.418C42.6311 116.418 43.2039 116.31 43.7175 116.092C44.2311 115.875 44.6657 115.569 45.0212 115.174C45.3768 114.759 45.6533 114.275 45.8508 113.722C46.0484 113.149 46.1471 112.537 46.1471 111.885C46.1471 111.213 46.0484 110.611 45.8508 110.077C45.6731 109.524 45.3965 109.05 45.0212 108.655C44.6657 108.26 44.2311 107.954 43.7175 107.737C43.2039 107.519 42.6311 107.411 41.999 107.411C41.3669 107.411 40.7941 107.519 40.2805 107.737C39.7669 107.954 39.3224 108.26 38.9471 108.655C38.5916 109.05 38.315 109.524 38.1175 110.077C37.92 110.611 37.8212 111.213 37.8212 111.885C37.8212 112.537 37.92 113.139 38.1175 113.692C38.315 114.245 38.5916 114.729 38.9471 115.144C39.3224 115.559 39.7669 115.875 40.2805 116.092C40.7941 116.31 41.3669 116.418 41.999 116.418ZM50.9214 118.522L53.2029 105.307H55.1584L59.2177 114.166L63.1883 105.307H65.1735L67.4254 118.522H64.9365L63.5142 109.87L59.5436 118.522H58.6844L54.7436 110.018L53.2918 118.522H50.9214ZM76.5525 118.759C75.2488 118.759 74.1426 118.552 73.234 118.137C72.3253 117.722 71.5945 117.11 71.0414 116.3C70.4883 115.47 70.0834 114.443 69.8266 113.218C69.5895 111.993 69.471 110.581 69.471 108.981C69.471 106.946 69.6784 105.257 70.0932 103.914C70.5081 102.551 71.0809 101.455 71.8118 100.625C72.5624 99.7955 73.4414 99.2128 74.4488 98.877C75.476 98.5214 76.5821 98.3436 77.7673 98.3436C78.1426 98.3436 78.4686 98.3239 78.7451 98.2844C79.0216 98.2449 79.2686 98.1856 79.4858 98.1066C79.7031 98.0078 79.8908 97.8893 80.0488 97.751C80.2068 97.593 80.355 97.4053 80.4932 97.1881L82.5673 98.2251C82.429 98.6992 82.2414 99.0943 82.0044 99.4103C81.7673 99.7264 81.4611 99.9832 81.0858 100.181C80.7105 100.378 80.2562 100.526 79.7229 100.625C79.1895 100.724 78.5673 100.783 77.8562 100.803C76.8291 100.823 75.9402 100.951 75.1895 101.188C74.4389 101.405 73.8167 101.85 73.3229 102.522C72.8488 103.173 72.4932 104.112 72.2562 105.336C72.0389 106.541 71.9303 108.142 71.9303 110.137L71.1895 109.603C71.4266 108.793 71.7328 108.112 72.1081 107.559C72.4834 106.986 72.9081 106.522 73.3821 106.166C73.876 105.811 74.4093 105.554 74.9821 105.396C75.5747 105.218 76.2068 105.129 76.8784 105.129C77.8858 105.129 78.7846 105.297 79.5747 105.633C80.3649 105.969 81.0365 106.443 81.5895 107.055C82.1426 107.648 82.5574 108.359 82.834 109.188C83.1303 109.998 83.2784 110.887 83.2784 111.855C83.2784 112.942 83.1007 113.919 82.7451 114.789C82.3895 115.638 81.9056 116.359 81.2932 116.952C80.7007 117.525 79.9895 117.969 79.1599 118.285C78.35 118.601 77.4809 118.759 76.5525 118.759ZM76.4932 116.418C77.0858 116.418 77.629 116.31 78.1229 116.092C78.6167 115.875 79.0414 115.579 79.3969 115.203C79.7525 114.808 80.0192 114.334 80.1969 113.781C80.3945 113.228 80.4932 112.606 80.4932 111.914C80.4932 111.243 80.4044 110.64 80.2266 110.107C80.0488 109.554 79.7821 109.08 79.4266 108.685C79.0908 108.29 78.6661 107.983 78.1525 107.766C77.6587 107.549 77.0858 107.44 76.434 107.44C75.8216 107.44 75.2686 107.549 74.7747 107.766C74.2809 107.983 73.8562 108.28 73.5007 108.655C73.1451 109.03 72.8784 109.495 72.7007 110.048C72.5229 110.601 72.434 111.213 72.434 111.885C72.434 112.616 72.5328 113.258 72.7303 113.811C72.9476 114.364 73.234 114.838 73.5895 115.233C73.9451 115.608 74.3698 115.905 74.8636 116.122C75.3574 116.32 75.9007 116.418 76.4932 116.418ZM86.5062 118.522V105.307H89.1432V115.855L87.4544 116.003L96.4914 105.307H98.2692V118.522H95.6025V107.974L97.1136 107.825L88.0766 118.522H86.5062ZM103.814 112.744V110.403H112.703V112.744H103.814ZM102.392 118.522V115.233V114.789V109.188V108.981V105.307H105.029V108.981V109.188V118.522H102.392ZM111.548 118.522V115.233V114.789V109.188V108.981V105.307H114.185V108.981V109.188V118.522H111.548ZM128.38 118.522V115.233L128.232 114.789V109.188L128.38 108.981V105.307H130.898V108.981V109.188V118.522H128.38ZM123.728 118.759C122.898 118.759 122.098 118.601 121.328 118.285C120.557 117.969 119.886 117.515 119.313 116.922C118.74 116.329 118.276 115.608 117.92 114.759C117.585 113.91 117.417 112.961 117.417 111.914C117.417 110.868 117.575 109.929 117.891 109.1C118.227 108.25 118.681 107.529 119.254 106.937C119.846 106.344 120.518 105.89 121.269 105.574C122.039 105.238 122.859 105.07 123.728 105.07C124.439 105.07 125.081 105.169 125.654 105.366C126.246 105.544 126.76 105.791 127.194 106.107C127.629 106.423 127.975 106.778 128.232 107.174C128.508 107.549 128.666 107.934 128.706 108.329V111.707H128.232C128.232 111.154 128.143 110.621 127.965 110.107C127.787 109.574 127.53 109.119 127.194 108.744C126.859 108.369 126.434 108.062 125.92 107.825C125.427 107.588 124.864 107.47 124.232 107.47C123.659 107.47 123.125 107.569 122.632 107.766C122.138 107.944 121.703 108.221 121.328 108.596C120.972 108.971 120.686 109.435 120.469 109.988C120.271 110.542 120.172 111.174 120.172 111.885C120.172 112.556 120.271 113.169 120.469 113.722C120.666 114.275 120.943 114.749 121.298 115.144C121.654 115.539 122.078 115.845 122.572 116.063C123.066 116.28 123.599 116.389 124.172 116.389C124.824 116.389 125.397 116.27 125.891 116.033C126.404 115.776 126.829 115.45 127.165 115.055C127.501 114.64 127.757 114.166 127.935 113.633C128.133 113.1 128.232 112.556 128.232 112.003H128.854V115.144C128.755 115.638 128.548 116.102 128.232 116.537C127.935 116.971 127.56 117.357 127.106 117.692C126.671 118.008 126.157 118.265 125.565 118.463C124.992 118.66 124.38 118.759 123.728 118.759ZM146.112 121.693V118.522H135.031V105.307H137.668V116.152H143.475V105.307H146.112V116.152H148.394V121.693H146.112ZM150.887 118.522V105.307H153.524V115.855L151.835 116.003L160.872 105.307H162.65V118.522H159.983V107.974L161.494 107.825L152.457 118.522H150.887ZM174.565 118.522V114.048H171.78C169.963 114.048 168.58 113.702 167.632 113.011C166.704 112.3 166.24 111.203 166.24 109.722C166.24 108.26 166.704 107.164 167.632 106.433C168.58 105.682 170.042 105.307 172.017 105.307H177.202V118.522H174.565ZM165.676 118.522V118.167L170.121 112.181L172.728 112.833L168.58 118.522H165.676ZM171.928 112.003H174.565V107.559H172.106C171.593 107.559 171.138 107.588 170.743 107.648C170.348 107.687 170.012 107.786 169.736 107.944C169.459 108.102 169.252 108.329 169.114 108.625C168.975 108.922 168.906 109.307 168.906 109.781C168.906 110.63 169.143 111.213 169.617 111.529C170.091 111.845 170.862 112.003 171.928 112.003Z" fill="#50703E"/>
</g>
<defs>
<clipPath id="clip0_341_805">
<rect width="600" height="371" fill="white"/>
</clipPath>
</defs>
</svg>
