<svg width="564" height="200" viewBox="0 0 564 200" fill="none" xmlns="http://www.w3.org/2000/svg">
<path d="M274.675 0H399.86C404.457 0 408.184 3.72475 408.184 8.31947V188.353C408.184 192.947 404.457 196.672 399.86 196.672H274.675C270.078 196.672 266.351 192.947 266.351 188.353V8.31947C266.351 3.72475 270.078 0 274.675 0Z" fill="#9EB96A"/>
<path d="M298.988 5.03854C301.845 9.9849 296.938 13.0177 296.592 20.3072C296.578 20.6165 296.231 20.8163 295.956 20.6744C289.467 17.329 284.386 20.0596 281.529 15.1134C279.959 12.3947 281.28 9.4261 283.542 8.12074C285.314 7.09794 287.408 7.13874 289.084 8.0426C289.139 6.14004 290.15 4.30773 291.922 3.28494C294.184 1.97938 297.417 2.31989 298.988 5.03854Z" fill="#B0C383" fill-opacity="0.7"/>
<path d="M298.988 34.0639C301.845 39.0103 296.938 42.0432 296.592 49.3324C296.578 49.6419 296.231 49.8416 295.956 49.6998C289.467 46.3544 284.386 49.0852 281.529 44.1388C279.959 41.4203 281.28 38.4516 283.542 37.1461C285.314 36.1234 287.408 36.164 289.084 37.0679C289.139 35.1654 290.15 33.3331 291.922 32.3103C294.184 31.0048 297.417 31.3453 298.988 34.0639Z" fill="#B0C383" fill-opacity="0.7"/>
<path d="M298.988 63.0894C301.845 68.0359 296.938 71.0685 296.592 78.358C296.578 78.6675 296.231 78.8671 295.956 78.7254C289.467 75.3799 284.386 78.1104 281.529 73.1643C279.959 70.4455 281.28 67.4768 283.542 66.1716C285.314 65.1487 287.408 65.1896 289.084 66.0934C289.139 64.1909 290.15 62.3586 291.922 61.3357C294.184 60.0302 297.417 60.3706 298.988 63.0894Z" fill="#B0C383" fill-opacity="0.7"/>
<path d="M298.988 92.1158C301.845 97.0619 296.938 100.095 296.592 107.384C296.578 107.694 296.231 107.894 295.956 107.751C289.467 104.406 284.386 107.137 281.529 102.191C279.959 99.4719 281.28 96.5032 283.542 95.198C285.314 94.175 287.408 94.216 289.084 95.1198C289.139 93.2173 290.15 91.3847 291.922 90.3621C294.184 89.0566 297.417 89.397 298.988 92.1158Z" fill="#B0C383" fill-opacity="0.7"/>
<path d="M298.988 121.141C301.845 126.087 296.938 129.12 296.592 136.41C296.578 136.719 296.231 136.919 295.956 136.777C289.467 133.432 284.386 136.162 281.529 131.216C279.959 128.497 281.28 125.529 283.542 124.223C285.314 123.201 287.408 123.241 289.084 124.145C289.139 122.243 290.15 120.41 291.922 119.388C294.184 118.082 297.417 118.423 298.988 121.141Z" fill="#B0C383" fill-opacity="0.7"/>
<path d="M298.988 150.167C301.845 155.113 296.938 158.146 296.592 165.435C296.578 165.745 296.231 165.944 295.956 165.803C289.467 162.457 284.386 165.188 281.529 160.241C279.959 157.523 281.28 154.554 283.542 153.249C285.314 152.226 287.408 152.267 289.084 153.171C289.139 151.268 290.15 149.436 291.922 148.413C294.184 147.107 297.417 147.448 298.988 150.167Z" fill="#B0C383" fill-opacity="0.7"/>
<path d="M298.988 179.192C301.845 184.138 296.938 187.171 296.592 194.461C296.578 194.77 296.231 194.97 295.956 194.828C289.467 191.482 284.386 194.213 281.529 189.267C279.959 186.548 281.28 183.579 283.542 182.274C285.314 181.251 287.408 181.292 289.084 182.196C289.139 180.293 290.15 178.461 291.922 177.438C294.184 176.133 297.417 176.473 298.988 179.192Z" fill="#B0C383" fill-opacity="0.7"/>
<path d="M332.078 5.03854C334.933 9.9849 330.028 13.0177 329.682 20.3072C329.668 20.6165 329.322 20.8163 329.046 20.6744C322.557 17.329 317.476 20.0596 314.619 15.1134C313.048 12.3947 314.37 9.4261 316.632 8.12074C318.404 7.09794 320.498 7.13874 322.173 8.0426C322.228 6.14004 323.239 4.30773 325.012 3.28494C327.274 1.97938 330.507 2.31989 332.078 5.03854Z" fill="#B0C383" fill-opacity="0.7"/>
<path d="M332.078 34.0639C334.933 39.0103 330.028 42.0432 329.682 49.3324C329.668 49.6419 329.322 49.8416 329.046 49.6998C322.557 46.3544 317.476 49.0852 314.619 44.1388C313.048 41.4203 314.37 38.4516 316.632 37.1461C318.404 36.1234 320.498 36.164 322.173 37.0679C322.228 35.1654 323.239 33.3331 325.012 32.3103C327.274 31.0048 330.507 31.3453 332.078 34.0639Z" fill="#B0C383" fill-opacity="0.7"/>
<path d="M332.078 63.0894C334.933 68.0359 330.028 71.0685 329.682 78.358C329.668 78.6675 329.322 78.8671 329.046 78.7254C322.557 75.3799 317.476 78.1104 314.619 73.1643C313.048 70.4455 314.37 67.4768 316.632 66.1716C318.404 65.1487 320.498 65.1896 322.173 66.0934C322.228 64.1909 323.239 62.3586 325.012 61.3357C327.274 60.0302 330.507 60.3706 332.078 63.0894Z" fill="#B0C383" fill-opacity="0.7"/>
<path d="M332.078 92.1158C334.933 97.0619 330.028 100.095 329.682 107.384C329.668 107.694 329.322 107.894 329.046 107.751C322.557 104.406 317.476 107.137 314.619 102.191C313.048 99.4719 314.37 96.5032 316.632 95.198C318.404 94.175 320.498 94.216 322.173 95.1198C322.228 93.2173 323.239 91.3847 325.012 90.3621C327.274 89.0566 330.507 89.397 332.078 92.1158Z" fill="#B0C383" fill-opacity="0.7"/>
<path d="M332.078 121.141C334.933 126.087 330.028 129.12 329.682 136.41C329.668 136.719 329.322 136.919 329.046 136.777C322.557 133.432 317.476 136.162 314.619 131.216C313.048 128.497 314.37 125.529 316.632 124.223C318.404 123.201 320.498 123.241 322.173 124.145C322.228 122.243 323.239 120.41 325.012 119.388C327.274 118.082 330.507 118.423 332.078 121.141Z" fill="#B0C383" fill-opacity="0.7"/>
<path d="M332.078 150.167C334.933 155.113 330.028 158.146 329.682 165.435C329.668 165.745 329.322 165.944 329.046 165.803C322.557 162.457 317.476 165.188 314.619 160.241C313.048 157.523 314.37 154.554 316.632 153.249C318.404 152.226 320.498 152.267 322.173 153.171C322.228 151.268 323.239 149.436 325.012 148.413C327.274 147.107 330.507 147.448 332.078 150.167Z" fill="#B0C383" fill-opacity="0.7"/>
<path d="M332.078 179.192C334.933 184.138 330.028 187.171 329.682 194.461C329.668 194.77 329.322 194.97 329.046 194.828C322.557 191.482 317.476 194.213 314.619 189.267C313.048 186.548 314.37 183.579 316.632 182.274C318.404 181.251 320.498 181.292 322.173 182.196C322.228 180.293 323.239 178.461 325.012 177.438C327.274 176.133 330.507 176.473 332.078 179.192Z" fill="#B0C383" fill-opacity="0.7"/>
<path d="M365.169 5.03854C368.026 9.9849 363.122 13.0177 362.775 20.3072C362.759 20.6165 362.412 20.8163 362.136 20.6744C355.65 17.329 350.566 20.0596 347.71 15.1134C346.142 12.3947 347.46 9.4261 349.724 8.12074C351.495 7.09794 353.59 7.13874 355.264 8.0426C355.321 6.14004 356.333 4.30773 358.104 3.28494C360.365 1.97938 363.598 2.31989 365.169 5.03854Z" fill="#B0C383" fill-opacity="0.7"/>
<path d="M365.169 34.0639C368.026 39.0103 363.122 42.0432 362.775 49.3324C362.759 49.6419 362.412 49.8416 362.136 49.6998C355.65 46.3544 350.566 49.0852 347.71 44.1388C346.142 41.4203 347.46 38.4516 349.724 37.1461C351.495 36.1234 353.59 36.164 355.264 37.0679C355.321 35.1654 356.333 33.3331 358.104 32.3103C360.365 31.0048 363.598 31.3453 365.169 34.0639Z" fill="#B0C383" fill-opacity="0.7"/>
<path d="M365.169 63.0894C368.026 68.0359 363.122 71.0685 362.775 78.358C362.759 78.6675 362.412 78.8671 362.136 78.7254C355.65 75.3799 350.566 78.1104 347.71 73.1643C346.142 70.4455 347.46 67.4768 349.724 66.1716C351.495 65.1487 353.59 65.1896 355.264 66.0934C355.321 64.1909 356.333 62.3586 358.104 61.3357C360.365 60.0302 363.598 60.3706 365.169 63.0894Z" fill="#B0C383" fill-opacity="0.7"/>
<path d="M365.169 92.1158C368.026 97.0619 363.122 100.095 362.775 107.384C362.759 107.694 362.412 107.894 362.136 107.751C355.65 104.406 350.566 107.137 347.71 102.191C346.142 99.4719 347.46 96.5032 349.724 95.198C351.495 94.175 353.59 94.216 355.264 95.1198C355.321 93.2173 356.333 91.3847 358.104 90.3621C360.365 89.0566 363.598 89.397 365.169 92.1158Z" fill="#B0C383" fill-opacity="0.7"/>
<path d="M365.169 121.141C368.026 126.087 363.122 129.12 362.775 136.41C362.759 136.719 362.412 136.919 362.136 136.777C355.65 133.432 350.566 136.162 347.71 131.216C346.142 128.497 347.46 125.529 349.724 124.223C351.495 123.201 353.59 123.241 355.264 124.145C355.321 122.243 356.333 120.41 358.104 119.388C360.365 118.082 363.598 118.423 365.169 121.141Z" fill="#B0C383" fill-opacity="0.7"/>
<path d="M365.169 150.167C368.026 155.113 363.122 158.146 362.775 165.435C362.759 165.745 362.412 165.944 362.136 165.803C355.65 162.457 350.566 165.188 347.71 160.241C346.142 157.523 347.46 154.554 349.724 153.249C351.495 152.226 353.59 152.267 355.264 153.171C355.321 151.268 356.333 149.436 358.104 148.413C360.365 147.107 363.598 147.448 365.169 150.167Z" fill="#B0C383" fill-opacity="0.7"/>
<path d="M365.169 179.192C368.026 184.138 363.122 187.171 362.775 194.461C362.759 194.77 362.412 194.97 362.136 194.828C355.65 191.482 350.566 194.213 347.71 189.267C346.142 186.548 347.46 183.579 349.724 182.274C351.495 181.251 353.59 181.292 355.264 182.196C355.321 180.293 356.333 178.461 358.104 177.438C360.365 176.133 363.598 176.473 365.169 179.192Z" fill="#B0C383" fill-opacity="0.7"/>
<path d="M398.258 5.03854C401.115 9.9849 396.208 13.0177 395.861 20.3072C395.848 20.6165 395.502 20.8163 395.225 20.6744C388.736 17.329 383.656 20.0596 380.799 15.1134C379.228 12.3947 380.549 9.4261 382.813 8.12074C384.585 7.09794 386.679 7.13874 388.354 8.0426C388.41 6.14004 389.419 4.30773 391.194 3.28494C393.454 1.97938 396.687 2.31989 398.258 5.03854Z" fill="#B0C383" fill-opacity="0.7"/>
<path d="M398.258 34.0639C401.115 39.0103 396.208 42.0432 395.861 49.3324C395.848 49.6419 395.502 49.8416 395.225 49.6998C388.736 46.3544 383.656 49.0852 380.799 44.1388C379.228 41.4203 380.549 38.4516 382.813 37.1461C384.585 36.1234 386.679 36.164 388.354 37.0679C388.41 35.1654 389.419 33.3331 391.194 32.3103C393.454 31.0048 396.687 31.3453 398.258 34.0639Z" fill="#B0C383" fill-opacity="0.7"/>
<path d="M398.258 63.0894C401.115 68.0359 396.208 71.0685 395.861 78.358C395.848 78.6675 395.502 78.8671 395.225 78.7254C388.736 75.3799 383.656 78.1104 380.799 73.1643C379.228 70.4455 380.549 67.4768 382.813 66.1716C384.585 65.1487 386.679 65.1896 388.354 66.0934C388.41 64.1909 389.419 62.3586 391.194 61.3357C393.454 60.0302 396.687 60.3706 398.258 63.0894Z" fill="#B0C383" fill-opacity="0.7"/>
<path d="M398.258 92.1158C401.115 97.0619 396.208 100.095 395.861 107.384C395.848 107.694 395.502 107.894 395.225 107.751C388.736 104.406 383.656 107.137 380.799 102.191C379.228 99.4719 380.549 96.5032 382.813 95.198C384.585 94.175 386.679 94.216 388.354 95.1198C388.41 93.2173 389.419 91.3847 391.194 90.3621C393.454 89.0566 396.687 89.397 398.258 92.1158Z" fill="#B0C383" fill-opacity="0.7"/>
<path d="M398.258 121.141C401.115 126.087 396.208 129.12 395.861 136.41C395.848 136.719 395.502 136.919 395.225 136.777C388.736 133.432 383.656 136.162 380.799 131.216C379.228 128.497 380.549 125.529 382.813 124.223C384.585 123.201 386.679 123.241 388.354 124.145C388.41 122.243 389.419 120.41 391.194 119.388C393.454 118.082 396.687 118.423 398.258 121.141Z" fill="#B0C383" fill-opacity="0.7"/>
<path d="M398.258 150.167C401.115 155.113 396.208 158.146 395.861 165.435C395.848 165.745 395.502 165.944 395.225 165.803C388.736 162.457 383.656 165.188 380.799 160.241C379.228 157.523 380.549 154.554 382.813 153.249C384.585 152.226 386.679 152.267 388.354 153.171C388.41 151.268 389.419 149.436 391.194 148.413C393.454 147.107 396.687 147.448 398.258 150.167Z" fill="#B0C383" fill-opacity="0.7"/>
<path d="M398.258 179.192C401.115 184.138 396.208 187.171 395.861 194.461C395.848 194.77 395.502 194.97 395.225 194.828C388.736 191.482 383.656 194.213 380.799 189.267C379.228 186.548 380.549 183.579 382.813 182.274C384.585 181.251 386.679 181.292 388.354 182.196C388.41 180.293 389.419 178.461 391.194 177.438C393.454 176.133 396.687 176.473 398.258 179.192Z" fill="#B0C383" fill-opacity="0.7"/>
<path d="M329.314 132.081V114.013H341.474V127.337L348.888 135.331H357.275L364.886 127.337V109.333L357.275 100.819H347.197L343.295 93.4089L363.714 68.5157V58.8961H342.516V69.4255H330.42V47.5869H375.81V72.7403L362.739 88.7293L376.978 104.848V132.081L362.609 147.421H343.684L329.314 132.081Z" fill="#728C43"/>
<path d="M278.914 69.5816C278.914 69.5816 288.832 61.3207 289.163 62.3121C289.653 64.8362 287.179 66.9384 287.179 68.5903C287.179 70.573 289.824 69.9121 289.824 72.2252C289.824 74.5384 287.179 73.7743 287.179 75.5297C287.179 76.8512 289.824 77.8425 289.163 81.147C288.832 81.8079 278.914 75.1989 278.914 75.1989V69.5816Z" fill="#728C43"/>
<path d="M266.352 62.2295H278.244C278.979 62.2295 279.575 62.8255 279.575 63.5606V80.0638C279.575 80.7989 278.979 81.3949 278.244 81.3949H266.352V62.2295Z" fill="#728C43"/>
<path d="M278.914 96.0162C278.914 96.0162 288.832 87.7553 289.163 88.7466C289.653 91.2704 287.179 93.3726 287.179 95.0249C287.179 97.0075 289.824 96.3466 289.824 98.6595C289.824 100.973 287.179 100.209 287.179 101.964C287.179 103.286 289.824 104.277 289.163 107.581C288.832 108.242 278.914 101.634 278.914 101.634V96.0162Z" fill="#728C43"/>
<path d="M266.352 88.665H278.244C278.979 88.665 279.575 89.2607 279.575 89.9962V106.499C279.575 107.234 278.979 107.83 278.244 107.83H266.352V88.665Z" fill="#728C43"/>
<path d="M278.914 122.451C278.914 122.451 288.832 114.19 289.163 115.181C289.653 117.705 287.179 119.808 287.179 121.459C287.179 123.442 289.824 122.781 289.824 125.094C289.824 127.408 287.179 126.643 287.179 128.399C287.179 129.721 289.824 130.712 289.163 134.016C288.832 134.677 278.914 128.068 278.914 128.068V122.451Z" fill="#728C43"/>
<path d="M266.352 115.1H278.244C278.979 115.1 279.575 115.696 279.575 116.431V132.934C279.575 133.669 278.979 134.265 278.244 134.265H266.352V115.1Z" fill="#728C43"/>
<path d="M430.491 0H555.677C560.273 0 564 3.72475 564 8.31947V188.353C564 192.947 560.273 196.672 555.677 196.672H430.491C425.894 196.672 422.168 192.947 422.168 188.353V8.31947C422.168 3.72475 425.894 0 430.491 0Z" fill="#9EB96A"/>
<path d="M454.805 5.03854C457.662 9.9849 452.755 13.0177 452.408 20.3072C452.395 20.6165 452.049 20.8163 451.772 20.6744C445.283 17.329 440.203 20.0596 437.346 15.1134C435.775 12.3947 437.096 9.4261 439.357 8.12074C441.132 7.09794 443.223 7.13874 444.901 8.0426C444.954 6.14004 445.966 4.30773 447.737 3.28494C450.001 1.97938 453.234 2.31989 454.805 5.03854Z" fill="#B0C383" fill-opacity="0.7"/>
<path d="M454.805 34.0639C457.662 39.0103 452.755 42.0432 452.408 49.3324C452.395 49.6419 452.049 49.8416 451.772 49.6998C445.283 46.3544 440.203 49.0852 437.346 44.1388C435.775 41.4203 437.096 38.4516 439.357 37.1461C441.132 36.1234 443.223 36.164 444.901 37.0679C444.954 35.1654 445.966 33.3331 447.737 32.3103C450.001 31.0048 453.234 31.3453 454.805 34.0639Z" fill="#B0C383" fill-opacity="0.7"/>
<path d="M454.805 63.0894C457.662 68.0359 452.755 71.0685 452.408 78.358C452.395 78.6675 452.049 78.8671 451.772 78.7254C445.283 75.3799 440.203 78.1104 437.346 73.1643C435.775 70.4455 437.096 67.4768 439.357 66.1716C441.132 65.1487 443.223 65.1896 444.901 66.0934C444.954 64.1909 445.966 62.3586 447.737 61.3357C450.001 60.0302 453.234 60.3706 454.805 63.0894Z" fill="#B0C383" fill-opacity="0.7"/>
<path d="M454.805 92.1158C457.662 97.0619 452.755 100.095 452.408 107.384C452.395 107.694 452.049 107.894 451.772 107.751C445.283 104.406 440.203 107.137 437.346 102.191C435.775 99.4719 437.096 96.5032 439.357 95.198C441.132 94.175 443.223 94.216 444.901 95.1198C444.954 93.2173 445.966 91.3847 447.737 90.3621C450.001 89.0566 453.234 89.397 454.805 92.1158Z" fill="#B0C383" fill-opacity="0.7"/>
<path d="M454.805 121.141C457.662 126.087 452.755 129.12 452.408 136.41C452.395 136.719 452.049 136.919 451.772 136.777C445.283 133.432 440.203 136.162 437.346 131.216C435.775 128.497 437.096 125.529 439.357 124.223C441.132 123.201 443.223 123.241 444.901 124.145C444.954 122.243 445.966 120.41 447.737 119.388C450.001 118.082 453.234 118.423 454.805 121.141Z" fill="#B0C383" fill-opacity="0.7"/>
<path d="M454.805 150.167C457.662 155.113 452.755 158.146 452.408 165.435C452.395 165.745 452.049 165.944 451.772 165.803C445.283 162.457 440.203 165.188 437.346 160.241C435.775 157.523 437.096 154.554 439.357 153.249C441.132 152.226 443.223 152.267 444.901 153.171C444.954 151.268 445.966 149.436 447.737 148.413C450.001 147.107 453.234 147.448 454.805 150.167Z" fill="#B0C383" fill-opacity="0.7"/>
<path d="M454.805 179.192C457.662 184.138 452.755 187.171 452.408 194.461C452.395 194.77 452.049 194.97 451.772 194.828C445.283 191.482 440.203 194.213 437.346 189.267C435.775 186.548 437.096 183.579 439.357 182.274C441.132 181.251 443.223 181.292 444.901 182.196C444.954 180.293 445.966 178.461 447.737 177.438C450.001 176.133 453.234 176.473 454.805 179.192Z" fill="#B0C383" fill-opacity="0.7"/>
<path d="M487.894 5.03854C490.751 9.9849 485.846 13.0177 485.5 20.3072C485.483 20.6165 485.137 20.8163 484.864 20.6744C478.375 17.329 473.295 20.0596 470.438 15.1134C468.866 12.3947 470.188 9.4261 472.449 8.12074C474.22 7.09794 476.314 7.13874 477.992 8.0426C478.046 6.14004 479.058 4.30773 480.829 3.28494C483.093 1.97938 486.326 2.31989 487.894 5.03854Z" fill="#B0C383" fill-opacity="0.7"/>
<path d="M487.894 34.0639C490.751 39.0103 485.846 42.0432 485.5 49.3324C485.483 49.6419 485.137 49.8416 484.864 49.6998C478.375 46.3544 473.295 49.0852 470.438 44.1388C468.866 41.4203 470.188 38.4516 472.449 37.1461C474.22 36.1234 476.314 36.164 477.992 37.0679C478.046 35.1654 479.058 33.3331 480.829 32.3103C483.093 31.0048 486.326 31.3453 487.894 34.0639Z" fill="#B0C383" fill-opacity="0.7"/>
<path d="M487.894 63.0894C490.751 68.0359 485.846 71.0685 485.5 78.358C485.483 78.6675 485.137 78.8671 484.864 78.7254C478.375 75.3799 473.295 78.1104 470.438 73.1643C468.866 70.4455 470.188 67.4768 472.449 66.1716C474.22 65.1487 476.314 65.1896 477.992 66.0934C478.046 64.1909 479.058 62.3586 480.829 61.3357C483.093 60.0302 486.326 60.3706 487.894 63.0894Z" fill="#B0C383" fill-opacity="0.7"/>
<path d="M487.894 92.1158C490.751 97.0619 485.846 100.095 485.5 107.384C485.483 107.694 485.137 107.894 484.864 107.751C478.375 104.406 473.295 107.137 470.438 102.191C468.866 99.4719 470.188 96.5032 472.449 95.198C474.22 94.175 476.314 94.216 477.992 95.1198C478.046 93.2173 479.058 91.3847 480.829 90.3621C483.093 89.0566 486.326 89.397 487.894 92.1158Z" fill="#B0C383" fill-opacity="0.7"/>
<path d="M487.894 121.141C490.751 126.087 485.846 129.12 485.5 136.41C485.483 136.719 485.137 136.919 484.864 136.777C478.375 133.432 473.295 136.162 470.438 131.216C468.866 128.497 470.188 125.529 472.449 124.223C474.22 123.201 476.314 123.241 477.992 124.145C478.046 122.243 479.058 120.41 480.829 119.388C483.093 118.082 486.326 118.423 487.894 121.141Z" fill="#B0C383" fill-opacity="0.7"/>
<path d="M487.894 150.167C490.751 155.113 485.846 158.146 485.5 165.435C485.483 165.745 485.137 165.944 484.864 165.803C478.375 162.457 473.295 165.188 470.438 160.241C468.866 157.523 470.188 154.554 472.449 153.249C474.22 152.226 476.314 152.267 477.992 153.171C478.046 151.268 479.058 149.436 480.829 148.413C483.093 147.107 486.326 147.448 487.894 150.167Z" fill="#B0C383" fill-opacity="0.7"/>
<path d="M487.894 179.192C490.751 184.138 485.846 187.171 485.5 194.461C485.483 194.77 485.137 194.97 484.864 194.828C478.375 191.482 473.295 194.213 470.438 189.267C468.866 186.548 470.188 183.579 472.449 182.274C474.22 181.251 476.314 181.292 477.992 182.196C478.046 180.293 479.058 178.461 480.829 177.438C483.093 176.133 486.326 176.473 487.894 179.192Z" fill="#B0C383" fill-opacity="0.7"/>
<path d="M520.984 5.03854C523.84 9.9849 518.936 13.0177 518.59 20.3072C518.573 20.6165 518.227 20.8163 517.951 20.6744C511.465 17.329 506.381 20.0596 503.524 15.1134C501.956 12.3947 503.275 9.4261 505.539 8.12074C507.31 7.09794 509.404 7.13874 511.079 8.0426C511.135 6.14004 512.147 4.30773 513.919 3.28494C516.179 1.97938 519.412 2.31989 520.984 5.03854Z" fill="#B0C383" fill-opacity="0.7"/>
<path d="M520.984 34.0639C523.84 39.0103 518.936 42.0432 518.59 49.3324C518.573 49.6419 518.227 49.8416 517.951 49.6998C511.465 46.3544 506.381 49.0852 503.524 44.1388C501.956 41.4203 503.275 38.4516 505.539 37.1461C507.31 36.1234 509.404 36.164 511.079 37.0679C511.135 35.1654 512.147 33.3331 513.919 32.3103C516.179 31.0048 519.412 31.3453 520.984 34.0639Z" fill="#B0C383" fill-opacity="0.7"/>
<path d="M520.984 63.0894C523.84 68.0359 518.936 71.0685 518.59 78.358C518.573 78.6675 518.227 78.8671 517.951 78.7254C511.465 75.3799 506.381 78.1104 503.524 73.1643C501.956 70.4455 503.275 67.4768 505.539 66.1716C507.31 65.1487 509.404 65.1896 511.079 66.0934C511.135 64.1909 512.147 62.3586 513.919 61.3357C516.179 60.0302 519.412 60.3706 520.984 63.0894Z" fill="#B0C383" fill-opacity="0.7"/>
<path d="M520.984 92.1158C523.84 97.0619 518.936 100.095 518.59 107.384C518.573 107.694 518.227 107.894 517.951 107.751C511.465 104.406 506.381 107.137 503.524 102.191C501.956 99.4719 503.275 96.5032 505.539 95.198C507.31 94.175 509.404 94.216 511.079 95.1198C511.135 93.2173 512.147 91.3847 513.919 90.3621C516.179 89.0566 519.412 89.397 520.984 92.1158Z" fill="#B0C383" fill-opacity="0.7"/>
<path d="M520.984 121.141C523.84 126.087 518.936 129.12 518.59 136.41C518.573 136.719 518.227 136.919 517.951 136.777C511.465 133.432 506.381 136.162 503.524 131.216C501.956 128.497 503.275 125.529 505.539 124.223C507.31 123.201 509.404 123.241 511.079 124.145C511.135 122.243 512.147 120.41 513.919 119.388C516.179 118.082 519.412 118.423 520.984 121.141Z" fill="#B0C383" fill-opacity="0.7"/>
<path d="M520.984 150.167C523.84 155.113 518.936 158.146 518.59 165.435C518.573 165.745 518.227 165.944 517.951 165.803C511.465 162.457 506.381 165.188 503.524 160.241C501.956 157.523 503.275 154.554 505.539 153.249C507.31 152.226 509.404 152.267 511.079 153.171C511.135 151.268 512.147 149.436 513.919 148.413C516.179 147.107 519.412 147.448 520.984 150.167Z" fill="#B0C383" fill-opacity="0.7"/>
<path d="M520.984 179.192C523.84 184.138 518.936 187.171 518.59 194.461C518.573 194.77 518.227 194.97 517.951 194.828C511.465 191.482 506.381 194.213 503.524 189.267C501.956 186.548 503.275 183.579 505.539 182.274C507.31 181.251 509.404 181.292 511.079 182.196C511.135 180.293 512.147 178.461 513.919 177.438C516.179 176.133 519.412 176.473 520.984 179.192Z" fill="#B0C383" fill-opacity="0.7"/>
<path d="M554.075 5.03854C556.932 9.9849 552.024 13.0177 551.678 20.3072C551.664 20.6165 551.318 20.8163 551.042 20.6744C544.553 17.329 539.472 20.0596 536.616 15.1134C535.044 12.3947 536.366 9.4261 538.63 8.12074C540.401 7.09794 542.495 7.13874 544.17 8.0426C544.227 6.14004 545.235 4.30773 547.01 3.28494C549.271 1.97938 552.503 2.31989 554.075 5.03854Z" fill="#B0C383" fill-opacity="0.7"/>
<path d="M554.075 34.0639C556.932 39.0103 552.024 42.0432 551.678 49.3324C551.664 49.6419 551.318 49.8416 551.042 49.6998C544.553 46.3544 539.472 49.0852 536.616 44.1388C535.044 41.4203 536.366 38.4516 538.63 37.1461C540.401 36.1234 542.495 36.164 544.17 37.0679C544.227 35.1654 545.235 33.3331 547.01 32.3103C549.271 31.0048 552.503 31.3453 554.075 34.0639Z" fill="#B0C383" fill-opacity="0.7"/>
<path d="M554.075 63.0894C556.932 68.0359 552.024 71.0685 551.678 78.358C551.664 78.6675 551.318 78.8671 551.042 78.7254C544.553 75.3799 539.472 78.1104 536.616 73.1643C535.044 70.4455 536.366 67.4768 538.63 66.1716C540.401 65.1487 542.495 65.1896 544.17 66.0934C544.227 64.1909 545.235 62.3586 547.01 61.3357C549.271 60.0302 552.503 60.3706 554.075 63.0894Z" fill="#B0C383" fill-opacity="0.7"/>
<path d="M554.075 92.1158C556.932 97.0619 552.024 100.095 551.678 107.384C551.664 107.694 551.318 107.894 551.042 107.751C544.553 104.406 539.472 107.137 536.616 102.191C535.044 99.4719 536.366 96.5032 538.63 95.198C540.401 94.175 542.495 94.216 544.17 95.1198C544.227 93.2173 545.235 91.3847 547.01 90.3621C549.271 89.0566 552.503 89.397 554.075 92.1158Z" fill="#B0C383" fill-opacity="0.7"/>
<path d="M554.075 121.141C556.932 126.087 552.024 129.12 551.678 136.41C551.664 136.719 551.318 136.919 551.042 136.777C544.553 133.432 539.472 136.162 536.616 131.216C535.044 128.497 536.366 125.529 538.63 124.223C540.401 123.201 542.495 123.241 544.17 124.145C544.227 122.243 545.235 120.41 547.01 119.388C549.271 118.082 552.503 118.423 554.075 121.141Z" fill="#B0C383" fill-opacity="0.7"/>
<path d="M554.075 150.167C556.932 155.113 552.024 158.146 551.678 165.435C551.664 165.745 551.318 165.944 551.042 165.803C544.553 162.457 539.472 165.188 536.616 160.241C535.044 157.523 536.366 154.554 538.63 153.249C540.401 152.226 542.495 152.267 544.17 153.171C544.227 151.268 545.235 149.436 547.01 148.413C549.271 147.107 552.503 147.448 554.075 150.167Z" fill="#B0C383" fill-opacity="0.7"/>
<path d="M554.075 179.192C556.932 184.138 552.024 187.171 551.678 194.461C551.664 194.77 551.318 194.97 551.042 194.828C544.553 191.482 539.472 194.213 536.616 189.267C535.044 186.548 536.366 183.579 538.63 182.274C540.401 181.251 542.495 181.292 544.17 182.196C544.227 180.293 545.235 178.461 547.01 177.438C549.271 176.133 552.503 176.473 554.075 179.192Z" fill="#B0C383" fill-opacity="0.7"/>
<path d="M485.129 132.081V114.013H497.288V127.337L504.702 135.331H513.089L520.7 127.337V109.333L513.089 100.819H503.011L499.109 93.4089L519.528 68.5157V58.8961H498.33V69.4255H486.234V47.5869H531.624V72.7403L518.553 88.7293L532.793 104.848V132.081L518.423 147.421H499.499L485.129 132.081Z" fill="#728C43"/>
<path d="M434.729 69.5816C434.729 69.5816 444.647 61.3207 444.976 62.3121C445.469 64.8362 442.995 66.9384 442.995 68.5903C442.995 70.573 445.639 69.9121 445.639 72.2252C445.639 74.5384 442.995 73.7743 442.995 75.5297C442.995 76.8512 445.639 77.8425 444.976 81.147C444.647 81.8079 434.729 75.1989 434.729 75.1989V69.5816Z" fill="#728C43"/>
<path d="M422.168 62.2295H434.061C434.796 62.2295 435.392 62.8255 435.392 63.5606V80.0638C435.392 80.7989 434.796 81.3949 434.061 81.3949H422.168V62.2295Z" fill="#728C43"/>
<path d="M434.729 96.0162C434.729 96.0162 444.647 87.7553 444.976 88.7466C445.469 91.2704 442.995 93.3726 442.995 95.0249C442.995 97.0075 445.639 96.3466 445.639 98.6595C445.639 100.973 442.995 100.209 442.995 101.964C442.995 103.286 445.639 104.277 444.976 107.581C444.647 108.242 434.729 101.634 434.729 101.634V96.0162Z" fill="#728C43"/>
<path d="M422.168 88.665H434.061C434.796 88.665 435.392 89.2607 435.392 89.9962V106.499C435.392 107.234 434.796 107.83 434.061 107.83H422.168V88.665Z" fill="#728C43"/>
<path d="M434.729 122.451C434.729 122.451 444.647 114.19 444.976 115.181C445.469 117.705 442.995 119.808 442.995 121.459C442.995 123.442 445.639 122.781 445.639 125.094C445.639 127.408 442.995 126.643 442.995 128.399C442.995 129.721 445.639 130.712 444.976 134.016C444.647 134.677 434.729 128.068 434.729 128.068V122.451Z" fill="#728C43"/>
<path d="M422.168 115.1H434.061C434.796 115.1 435.392 115.696 435.392 116.431V132.934C435.392 133.669 434.796 134.265 434.061 134.265H422.168V115.1Z" fill="#728C43"/>
<path d="M18.8264 81.3471V84.0626H4.53933V81.3471H18.8264ZM6.04156 72.1465V94.5092H3.03711V72.1465H6.04156ZM17.3242 94.5092V72.1465H20.3287V94.5092H17.3242ZM26.4469 94.5092V72.1465H38.337V74.862H29.4514V81.2833H36.8348V83.9668H29.4514V91.7937H38.6567V94.5092H26.4469ZM16.653 127.787L6.64884 116.031L14.5435 105.424H17.6438V106.063L9.39759 116.797V114.657L20.041 127.148V127.787H16.653ZM4.50737 117.372V114.689H8.95012V117.372H4.50737ZM6.04156 105.424V127.787H3.03711V105.424H6.04156ZM31.8918 125.327C33.085 125.327 34.1929 125.114 35.2157 124.688C36.2385 124.262 37.1228 123.666 37.8686 122.899C38.6357 122.111 39.2323 121.185 39.6585 120.12C40.0846 119.055 40.2977 117.884 40.2977 116.606C40.2977 115.307 40.0846 114.125 39.6585 113.06C39.2323 111.995 38.6463 111.079 37.9006 110.312C37.1548 109.545 36.2705 108.949 35.2477 108.523C34.2249 108.076 33.1063 107.852 31.8918 107.852C30.6772 107.852 29.5585 108.065 28.5357 108.491C27.5129 108.917 26.6287 109.524 25.8829 110.312C25.1371 111.079 24.5511 111.995 24.1249 113.06C23.6988 114.125 23.4857 115.307 23.4857 116.606C23.4857 117.884 23.6881 119.055 24.093 120.12C24.5191 121.185 25.1051 122.111 25.8509 122.899C26.618 123.666 27.5129 124.262 28.5357 124.688C29.5585 125.114 30.6772 125.327 31.8918 125.327ZM31.8918 128.075C30.1658 128.075 28.589 127.787 27.1613 127.212C25.755 126.637 24.5511 125.838 23.5496 124.816C22.5481 123.772 21.7704 122.548 21.2164 121.142C20.6624 119.737 20.3854 118.214 20.3854 116.574C20.3854 114.955 20.6624 113.454 21.2164 112.069C21.7704 110.664 22.5481 109.45 23.5496 108.427C24.5511 107.384 25.755 106.574 27.1613 105.999C28.5677 105.403 30.1445 105.105 31.8918 105.105C33.6176 105.105 35.1838 105.392 36.5901 105.967C37.9965 106.542 39.2004 107.352 40.2018 108.395C41.2246 109.418 42.0024 110.632 42.5351 112.037C43.0891 113.443 43.3661 114.976 43.3661 116.638C43.3661 118.256 43.0891 119.768 42.5351 121.174C42.0024 122.558 41.2353 123.762 40.2338 124.784C39.2323 125.806 38.0178 126.616 36.5901 127.212C35.1838 127.787 33.6176 128.075 31.8918 128.075ZM46.3326 127.787L49.3371 105.424H51.4785L59.1814 124.081L57.6472 124.145L65.0625 105.424H67.2359L70.528 127.787H67.6194L65.0944 110.408H65.8296L58.7979 127.915H57.871L50.6475 110.44H51.4785L49.2412 127.787H46.3326ZM75.3893 127.787V105.424H87.0235V108.14H78.3937V114.306H80.8868C82.2079 114.306 83.3798 114.465 84.4026 114.785C85.4254 115.083 86.2777 115.52 86.9596 116.095C87.6627 116.67 88.1848 117.372 88.5257 118.203C88.888 119.012 89.0691 119.939 89.0691 120.982C89.0691 122.026 88.888 122.963 88.5257 123.794C88.1848 124.624 87.6627 125.338 86.9596 125.934C86.2777 126.531 85.4254 126.988 84.4026 127.308C83.3798 127.627 82.2079 127.787 80.8868 127.787H75.3893ZM80.663 125.072C81.558 125.072 82.3357 124.986 82.9963 124.816C83.6781 124.624 84.2321 124.358 84.6583 124.017C85.1058 123.677 85.436 123.261 85.6491 122.771C85.8835 122.26 86.0007 121.675 86.0007 121.014C86.0007 120.461 85.9048 119.939 85.7131 119.449C85.5213 118.959 85.2017 118.544 84.7542 118.203C84.328 117.841 83.774 117.553 83.0921 117.34C82.4103 117.128 81.5686 117.021 80.5668 117.021H78.3937V125.072H80.663ZM93.6487 127.787V105.392H96.6531V123.187L96.0778 122.867L109.63 105.424H111.484V127.787H108.479V109.162L109.598 109.705L95.5664 127.787H93.6487ZM133.347 114.625V117.34H119.06V114.625H133.347ZM120.563 105.424V127.787H117.558V105.424H120.563ZM131.845 127.787V105.424H134.85V127.787H131.845ZM138.315 127.787L147.488 105.169H149.182L158.451 127.787H155.159L147.648 108.779H148.894L141.447 127.787H138.315ZM142.949 122.037V119.417H153.593V122.037H142.949ZM178.373 132.068V127.787H161.881V105.424H164.885V125.072H175.145V105.424H178.149V125.072H181.218V132.068H178.373ZM185.415 127.787V105.392H188.42V123.187L187.844 122.867L201.396 105.424H203.25V127.787H200.246V109.162L201.364 109.705L187.333 127.787H185.415ZM218.881 127.787V118.874H215.653C214.566 118.874 213.576 118.704 212.681 118.363C211.807 118.022 211.051 117.553 210.411 116.957C209.793 116.339 209.314 115.626 208.973 114.817C208.632 113.986 208.462 113.092 208.462 112.133C208.462 111.153 208.632 110.259 208.973 109.45C209.314 108.619 209.804 107.916 210.443 107.341C211.083 106.745 211.85 106.276 212.745 105.936C213.64 105.595 214.641 105.424 215.749 105.424H221.886V127.787H218.881ZM206.959 127.787V127.148L212.808 117.564L215.877 118.107L210.06 127.787H206.959ZM216.101 116.127H218.881V108.14H216.069C215.344 108.14 214.694 108.246 214.119 108.459C213.565 108.651 213.096 108.938 212.713 109.322C212.329 109.684 212.031 110.11 211.818 110.6C211.626 111.09 211.53 111.611 211.53 112.165C211.53 112.719 211.626 113.241 211.818 113.731C212.031 114.199 212.329 114.614 212.713 114.976C213.096 115.338 213.565 115.626 214.119 115.839C214.694 116.031 215.355 116.127 216.101 116.127Z" fill="#BA4325"/>
</svg>
